<svg width="40" height="40" viewBox="0 0 40 40" fill="none" xmlns="http://www.w3.org/2000/svg">
<path fill-rule="evenodd" clip-rule="evenodd" d="M37.1855 14.797L39.8668 26.1909C40.5952 29.2869 38.2436 32.2511 35.067 32.2511C33.7136 32.2511 32.4419 31.5309 31.7467 30.3718L29.6816 26.9307C29.3285 26.3417 28.6825 25.9758 27.9958 25.9758H12.0038C11.3172 25.9758 10.6714 26.3414 10.3183 26.9304L8.25292 30.3721C7.55804 31.5309 6.28638 32.2511 4.93446 32.2511C1.75303 32.2511 -0.594678 29.2839 0.133162 26.1909L2.81442 14.797C3.80105 10.603 7.52112 8.57143 10.6745 8.57143H29.3258C33.6342 8.57143 36.4635 11.7275 37.1855 14.797ZM13.6414 18.4454H14.9799C15.6268 18.4454 16.1514 17.9208 16.1514 17.2738C16.1514 16.6266 15.6268 16.102 14.9799 16.102H13.6414V14.7635C13.6414 14.1165 13.1168 13.5919 12.4695 13.5919C11.8225 13.5919 11.298 14.1165 11.298 14.7635V16.102H9.95946C9.31249 16.102 8.7879 16.6266 8.7879 17.2738C8.7879 17.9208 9.31249 18.4454 9.95946 18.4454H11.298V19.7839C11.298 20.4309 11.8225 20.9555 12.4695 20.9555C13.1168 20.9555 13.6414 20.4309 13.6414 19.7839V18.4454ZM25.0201 18.4454C24.3734 18.4454 23.8485 17.9205 23.8485 17.2738C23.8485 16.6269 24.3737 16.102 25.0201 16.102C25.6671 16.102 26.192 16.6269 26.192 17.2738C26.192 17.9205 25.6671 18.4454 25.0201 18.4454ZM26.3586 19.7839C26.3586 20.4306 26.8838 20.9555 27.5304 20.9555C28.1771 20.9555 28.702 20.4306 28.702 19.7839C28.702 19.1372 28.1771 18.612 27.5304 18.612C26.8838 18.612 26.3586 19.1372 26.3586 19.7839ZM27.5304 15.9353C26.8838 15.9353 26.3586 15.4104 26.3586 14.7635C26.3586 14.1168 26.8838 13.5919 27.5304 13.5919C28.1771 13.5919 28.702 14.1168 28.702 14.7635C28.702 15.4104 28.1771 15.9353 27.5304 15.9353ZM28.8686 17.2738C28.8686 17.9205 29.3938 18.4454 30.0405 18.4454C30.6872 18.4454 31.2121 17.9205 31.2121 17.2738C31.2121 16.6269 30.6872 16.102 30.0405 16.102C29.3938 16.102 28.8686 16.6269 28.8686 17.2738Z" fill="#FF8900"/>
</svg>
