<svg width="82" height="82" viewBox="0 0 82 82" fill="none" xmlns="http://www.w3.org/2000/svg">
<path d="M0.5 4C0.5 2.067 2.067 0.5 4 0.5H81.5V81.5H4C2.067 81.5 0.5 79.933 0.5 78V4Z" fill="#00B094"/>
<path d="M0.5 4C0.5 2.067 2.067 0.5 4 0.5H81.5V81.5H4C2.067 81.5 0.5 79.933 0.5 78V4Z" stroke="#00846F"/>
<path fill-rule="evenodd" clip-rule="evenodd" d="M58.1855 35.797L60.8668 47.1909C61.5952 50.2869 59.2436 53.2511 56.067 53.2511C54.7136 53.2511 53.4419 52.5309 52.7467 51.3718L50.6816 47.9307C50.3285 47.3417 49.6825 46.9758 48.9958 46.9758H33.0038C32.3172 46.9758 31.6714 47.3414 31.3183 47.9304L29.2529 51.3721C28.558 52.5309 27.2864 53.2511 25.9345 53.2511C22.753 53.2511 20.4053 50.2839 21.1332 47.1909L23.8144 35.797C24.801 31.603 28.5211 29.5714 31.6745 29.5714H50.3258C54.6342 29.5714 57.4635 32.7275 58.1855 35.797ZM34.6414 39.4454H35.9799C36.6268 39.4454 37.1514 38.9208 37.1514 38.2738C37.1514 37.6266 36.6268 37.102 35.9799 37.102H34.6414V35.7635C34.6414 35.1165 34.1168 34.5919 33.4695 34.5919C32.8225 34.5919 32.298 35.1165 32.298 35.7635V37.102H30.9595C30.3125 37.102 29.7879 37.6266 29.7879 38.2738C29.7879 38.9208 30.3125 39.4454 30.9595 39.4454H32.298V40.7839C32.298 41.4309 32.8225 41.9555 33.4695 41.9555C34.1168 41.9555 34.6414 41.4309 34.6414 40.7839V39.4454ZM46.0201 39.4454C45.3734 39.4454 44.8485 38.9205 44.8485 38.2738C44.8485 37.6269 45.3737 37.102 46.0201 37.102C46.6671 37.102 47.192 37.6269 47.192 38.2738C47.192 38.9205 46.6671 39.4454 46.0201 39.4454ZM47.3586 40.7839C47.3586 41.4306 47.8838 41.9555 48.5304 41.9555C49.1771 41.9555 49.702 41.4306 49.702 40.7839C49.702 40.1372 49.1771 39.612 48.5304 39.612C47.8838 39.612 47.3586 40.1372 47.3586 40.7839ZM48.5304 36.9353C47.8838 36.9353 47.3586 36.4104 47.3586 35.7635C47.3586 35.1168 47.8838 34.5919 48.5304 34.5919C49.1771 34.5919 49.702 35.1168 49.702 35.7635C49.702 36.4104 49.1771 36.9353 48.5304 36.9353ZM49.8686 38.2738C49.8686 38.9205 50.3938 39.4454 51.0405 39.4454C51.6872 39.4454 52.2121 38.9205 52.2121 38.2738C52.2121 37.6269 51.6872 37.102 51.0405 37.102C50.3938 37.102 49.8686 37.6269 49.8686 38.2738Z" fill="white"/>
</svg>
