<svg width="24" height="25" viewBox="0 0 24 25" fill="none" xmlns="http://www.w3.org/2000/svg">
<path fill-rule="evenodd" clip-rule="evenodd" d="M12 0.5C5.37258 0.5 0 5.87258 0 12.5C0 19.1274 5.37258 24.5 12 24.5C18.6274 24.5 24 19.1274 24 12.5C23.9912 5.87624 18.6238 0.508814 12 0.5ZM18.2187 12.3L15.9493 14.3187L16.5973 17.3C16.7113 17.8175 16.5081 18.3534 16.0795 18.6651C15.651 18.9768 15.0786 19.0052 14.6213 18.7373L12 17.188L9.376 18.724C8.92104 18.9888 8.3529 18.9611 7.92585 18.6533C7.49879 18.3456 7.29278 17.8154 7.4 17.3L8.05067 14.332L5.78133 12.3133C5.38416 11.9617 5.23323 11.408 5.39699 10.9035C5.56074 10.3989 6.00802 10.0394 6.536 9.988L9.56 9.68933L10.7787 6.9C10.9911 6.41494 11.4705 6.10157 12 6.10157C12.5295 6.10157 13.0089 6.41494 13.2213 6.9L14.44 9.684L17.464 9.98267C17.992 10.0341 18.4393 10.3936 18.603 10.8981C18.7668 11.4027 18.6158 11.9563 18.2187 12.308V12.3ZM12.0015 10.75L12.3135 11.4593C12.5079 11.9027 12.9274 12.2059 13.4095 12.2513L14.1828 12.3287L13.6015 12.8433C13.235 13.1606 13.0696 13.6517 13.1695 14.126L13.3348 14.8833L12.6868 14.4913C12.2702 14.2469 11.754 14.2469 11.3375 14.4913L10.6681 14.8833L10.8201 14.126C10.9232 13.6542 10.763 13.1635 10.4015 12.8433L9.82812 12.3367L10.6015 12.2593C11.0823 12.2096 11.4986 11.9035 11.6895 11.4593L12.0015 10.75Z" fill="#00B094"/>
<mask id="mask0_23_10886" style="mask-type:luminance" maskUnits="userSpaceOnUse" x="0" y="0" width="24" height="25">
<path fill-rule="evenodd" clip-rule="evenodd" d="M12 0.5C5.37258 0.5 0 5.87258 0 12.5C0 19.1274 5.37258 24.5 12 24.5C18.6274 24.5 24 19.1274 24 12.5C23.9912 5.87624 18.6238 0.508814 12 0.5ZM18.2187 12.3L15.9493 14.3187L16.5973 17.3C16.7113 17.8175 16.5081 18.3534 16.0795 18.6651C15.651 18.9768 15.0786 19.0052 14.6213 18.7373L12 17.188L9.376 18.724C8.92104 18.9888 8.3529 18.9611 7.92585 18.6533C7.49879 18.3456 7.29278 17.8154 7.4 17.3L8.05067 14.332L5.78133 12.3133C5.38416 11.9617 5.23323 11.408 5.39699 10.9035C5.56074 10.3989 6.00802 10.0394 6.536 9.988L9.56 9.68933L10.7787 6.9C10.9911 6.41494 11.4705 6.10157 12 6.10157C12.5295 6.10157 13.0089 6.41494 13.2213 6.9L14.44 9.684L17.464 9.98267C17.992 10.0341 18.4393 10.3936 18.603 10.8981C18.7668 11.4027 18.6158 11.9563 18.2187 12.308V12.3ZM12.0015 10.75L12.3135 11.4593C12.5079 11.9027 12.9274 12.2059 13.4095 12.2513L14.1828 12.3287L13.6015 12.8433C13.235 13.1606 13.0696 13.6517 13.1695 14.126L13.3348 14.8833L12.6868 14.4913C12.2702 14.2469 11.754 14.2469 11.3375 14.4913L10.6681 14.8833L10.8201 14.126C10.9232 13.6542 10.763 13.1635 10.4015 12.8433L9.82812 12.3367L10.6015 12.2593C11.0823 12.2096 11.4986 11.9035 11.6895 11.4593L12.0015 10.75Z" fill="white"/>
</mask>
<g mask="url(#mask0_23_10886)">
<path fill-rule="evenodd" clip-rule="evenodd" d="M33.8135 48.6879C33.8135 48.6879 32.2427 56.6762 23.892 48.7329C15.5414 40.7897 7.71551 48.0531 3.4441 44.3771C-0.827307 40.7011 -3.91224 30.2194 2.10124 24.3284C8.11472 18.4373 11.0799 13.517 19.5603 17.9068C28.0407 22.2966 38.7773 12.3833 38.8891 22.5528C39.001 32.7222 33.8135 48.6879 33.8135 48.6879Z" fill="#00846F"/>
<path fill-rule="evenodd" clip-rule="evenodd" d="M33.8135 8.68787C33.8135 8.68787 32.2427 16.6762 23.892 8.73294C15.5414 0.789656 7.71551 8.05311 3.4441 4.37712C-0.827307 0.701141 -3.91224 -9.78056 2.10124 -15.6716C8.11472 -21.5627 11.0799 -26.483 19.5603 -22.0932C28.0407 -17.7034 38.7773 -27.6167 38.8891 -17.4472C39.001 -7.27779 33.8135 8.68787 33.8135 8.68787Z" fill="#00846F"/>
</g>
</svg>
