<svg width="343" height="82" viewBox="0 0 343 82" fill="none" xmlns="http://www.w3.org/2000/svg">
<g clip-path="url(#clip0_23_10767)">
<path d="M0.5 4C0.5 2.067 2.067 0.5 4 0.5H81.5V81.5H4C2.067 81.5 0.5 79.933 0.5 78V4Z" fill="white"/>
<path d="M0.5 4C0.5 2.067 2.067 0.5 4 0.5H81.5V81.5H4C2.067 81.5 0.5 79.933 0.5 78V4Z" stroke="#CCCCCC"/>
<path fill-rule="evenodd" clip-rule="evenodd" d="M58.1855 35.797L60.8668 47.1909C61.5952 50.2869 59.2436 53.2511 56.067 53.2511C54.7136 53.2511 53.4419 52.5309 52.7467 51.3718L50.6816 47.9307C50.3285 47.3417 49.6825 46.9758 48.9958 46.9758H33.0038C32.3172 46.9758 31.6714 47.3414 31.3183 47.9304L29.2529 51.3721C28.558 52.5309 27.2864 53.2511 25.9345 53.2511C22.753 53.2511 20.4053 50.2839 21.1332 47.1909L23.8144 35.797C24.801 31.603 28.5211 29.5714 31.6745 29.5714H50.3258C54.6342 29.5714 57.4635 32.7275 58.1855 35.797ZM34.6414 39.4454H35.9799C36.6268 39.4454 37.1514 38.9208 37.1514 38.2738C37.1514 37.6266 36.6268 37.102 35.9799 37.102H34.6414V35.7635C34.6414 35.1165 34.1168 34.5919 33.4695 34.5919C32.8225 34.5919 32.298 35.1165 32.298 35.7635V37.102H30.9595C30.3125 37.102 29.7879 37.6266 29.7879 38.2738C29.7879 38.9208 30.3125 39.4454 30.9595 39.4454H32.298V40.7839C32.298 41.4309 32.8225 41.9555 33.4695 41.9555C34.1168 41.9555 34.6414 41.4309 34.6414 40.7839V39.4454ZM46.0201 39.4454C45.3734 39.4454 44.8485 38.9205 44.8485 38.2738C44.8485 37.6269 45.3737 37.102 46.0201 37.102C46.6671 37.102 47.192 37.6269 47.192 38.2738C47.192 38.9205 46.6671 39.4454 46.0201 39.4454ZM47.3586 40.7839C47.3586 41.4306 47.8838 41.9555 48.5304 41.9555C49.1771 41.9555 49.702 41.4306 49.702 40.7839C49.702 40.1372 49.1771 39.612 48.5304 39.612C47.8838 39.612 47.3586 40.1372 47.3586 40.7839ZM48.5304 36.9353C47.8838 36.9353 47.3586 36.4104 47.3586 35.7635C47.3586 35.1168 47.8838 34.5919 48.5304 34.5919C49.1771 34.5919 49.702 35.1168 49.702 35.7635C49.702 36.4104 49.1771 36.9353 48.5304 36.9353ZM49.8686 38.2738C49.8686 38.9205 50.3938 39.4454 51.0405 39.4454C51.6872 39.4454 52.2121 38.9205 52.2121 38.2738C52.2121 37.6269 51.6872 37.102 51.0405 37.102C50.3938 37.102 49.8686 37.6269 49.8686 38.2738Z" fill="#FF8900"/>
<mask id="path-3-inside-1_23_10767" fill="white">
<path d="M82 0H339C341.209 0 343 1.79086 343 4V78C343 80.2091 341.209 82 339 82H82V0Z"/>
</mask>
<path d="M82 0H339C341.209 0 343 1.79086 343 4V78C343 80.2091 341.209 82 339 82H82V0Z" fill="white"/>
<path d="M82 -1H339C341.761 -1 344 1.23858 344 4H342C342 2.34315 340.657 1 339 1H82V-1ZM344 78C344 80.7614 341.761 83 339 83H82V81H339C340.657 81 342 79.6569 342 78H344ZM82 82V0V82ZM339 -1C341.761 -1 344 1.23858 344 4V78C344 80.7614 341.761 83 339 83V81C340.657 81 342 79.6569 342 78V4C342 2.34315 340.657 1 339 1V-1Z" fill="#CCCCCC" mask="url(#path-3-inside-1_23_10767)"/>
<path d="M101.584 30C101.491 30 101.411 29.9673 101.346 29.902C101.281 29.8367 101.248 29.7573 101.248 29.664V21.922H98.658C98.5647 21.922 98.4853 21.8893 98.42 21.824C98.3547 21.7587 98.322 21.6793 98.322 21.586V20.55C98.322 20.4473 98.3547 20.3633 98.42 20.298C98.4853 20.2327 98.5647 20.2 98.658 20.2H105.798C105.901 20.2 105.985 20.2327 106.05 20.298C106.115 20.3633 106.148 20.4473 106.148 20.55V21.586C106.148 21.6793 106.115 21.7587 106.05 21.824C105.985 21.8893 105.901 21.922 105.798 21.922H103.222V29.664C103.222 29.7573 103.189 29.8367 103.124 29.902C103.059 29.9673 102.975 30 102.872 30H101.584ZM108.257 30.14C107.771 30.14 107.333 30.0467 106.941 29.86C106.549 29.664 106.236 29.4073 106.003 29.09C105.779 28.7633 105.667 28.3993 105.667 27.998C105.667 27.3447 105.928 26.8267 106.451 26.444C106.983 26.052 107.683 25.7907 108.551 25.66L110.469 25.38V25.086C110.469 24.694 110.371 24.3907 110.175 24.176C109.979 23.9613 109.643 23.854 109.167 23.854C108.831 23.854 108.555 23.924 108.341 24.064C108.135 24.1947 107.981 24.372 107.879 24.596C107.804 24.7173 107.697 24.778 107.557 24.778H106.451C106.348 24.778 106.269 24.75 106.213 24.694C106.166 24.638 106.143 24.5633 106.143 24.47C106.152 24.3207 106.213 24.1387 106.325 23.924C106.437 23.7093 106.614 23.504 106.857 23.308C107.099 23.1027 107.412 22.93 107.795 22.79C108.177 22.65 108.639 22.58 109.181 22.58C109.769 22.58 110.263 22.6547 110.665 22.804C111.075 22.944 111.402 23.1353 111.645 23.378C111.887 23.6207 112.065 23.9053 112.177 24.232C112.289 24.5587 112.345 24.904 112.345 25.268V29.664C112.345 29.7573 112.312 29.8367 112.247 29.902C112.181 29.9673 112.102 30 112.009 30H110.875C110.772 30 110.688 29.9673 110.623 29.902C110.567 29.8367 110.539 29.7573 110.539 29.664V29.118C110.417 29.2953 110.254 29.4633 110.049 29.622C109.843 29.7713 109.591 29.8973 109.293 30C109.003 30.0933 108.658 30.14 108.257 30.14ZM108.733 28.81C109.059 28.81 109.353 28.74 109.615 28.6C109.885 28.46 110.095 28.2453 110.245 27.956C110.403 27.6573 110.483 27.284 110.483 26.836V26.542L109.083 26.766C108.532 26.85 108.121 26.9853 107.851 27.172C107.58 27.3587 107.445 27.5873 107.445 27.858C107.445 28.0633 107.505 28.2407 107.627 28.39C107.757 28.53 107.921 28.6373 108.117 28.712C108.313 28.7773 108.518 28.81 108.733 28.81ZM114.491 30C114.397 30 114.318 29.9673 114.253 29.902C114.187 29.8367 114.155 29.7573 114.155 29.664V20.396C114.155 20.3027 114.187 20.2233 114.253 20.158C114.318 20.0927 114.397 20.06 114.491 20.06H115.625C115.727 20.06 115.807 20.0927 115.863 20.158C115.928 20.2233 115.961 20.3027 115.961 20.396V25.184L118.313 22.958C118.397 22.8833 118.471 22.8273 118.537 22.79C118.602 22.7433 118.7 22.72 118.831 22.72H120.133C120.226 22.72 120.301 22.748 120.357 22.804C120.413 22.86 120.441 22.9347 120.441 23.028C120.441 23.0653 120.431 23.1073 120.413 23.154C120.394 23.2007 120.357 23.2427 120.301 23.28L117.417 25.982L120.651 29.454C120.744 29.5473 120.791 29.6267 120.791 29.692C120.791 29.7853 120.758 29.86 120.693 29.916C120.637 29.972 120.567 30 120.483 30H119.153C119.013 30 118.91 29.9813 118.845 29.944C118.789 29.8973 118.719 29.8367 118.635 29.762L115.961 26.948V29.664C115.961 29.7573 115.928 29.8367 115.863 29.902C115.807 29.9673 115.727 30 115.625 30H114.491ZM124.632 30.14C123.596 30.14 122.775 29.8413 122.168 29.244C121.562 28.6467 121.235 27.7973 121.188 26.696C121.179 26.6027 121.174 26.486 121.174 26.346C121.174 26.1967 121.179 26.08 121.188 25.996C121.226 25.296 121.384 24.6893 121.664 24.176C121.954 23.6627 122.35 23.2707 122.854 23C123.358 22.72 123.951 22.58 124.632 22.58C125.388 22.58 126.023 22.7387 126.536 23.056C127.05 23.364 127.437 23.798 127.698 24.358C127.96 24.9087 128.09 25.548 128.09 26.276V26.57C128.09 26.6633 128.058 26.7427 127.992 26.808C127.927 26.8733 127.843 26.906 127.74 26.906H123.092C123.092 26.906 123.092 26.92 123.092 26.948C123.092 26.976 123.092 26.9993 123.092 27.018C123.102 27.3447 123.162 27.648 123.274 27.928C123.396 28.1987 123.568 28.418 123.792 28.586C124.026 28.754 124.301 28.838 124.618 28.838C124.88 28.838 125.099 28.8007 125.276 28.726C125.454 28.642 125.598 28.5487 125.71 28.446C125.822 28.3433 125.902 28.2593 125.948 28.194C126.032 28.082 126.098 28.0167 126.144 27.998C126.2 27.97 126.28 27.956 126.382 27.956H127.586C127.68 27.956 127.754 27.984 127.81 28.04C127.876 28.096 127.904 28.166 127.894 28.25C127.885 28.3993 127.806 28.5813 127.656 28.796C127.516 29.0107 127.311 29.2207 127.04 29.426C126.77 29.6313 126.429 29.804 126.018 29.944C125.617 30.0747 125.155 30.14 124.632 30.14ZM123.092 25.73H126.186V25.688C126.186 25.324 126.126 25.0067 126.004 24.736C125.883 24.4653 125.706 24.2507 125.472 24.092C125.239 23.9333 124.959 23.854 124.632 23.854C124.306 23.854 124.026 23.9333 123.792 24.092C123.559 24.2507 123.382 24.4653 123.26 24.736C123.148 25.0067 123.092 25.324 123.092 25.688V25.73ZM134.89 30.14C134.404 30.14 133.966 30.0467 133.574 29.86C133.182 29.664 132.869 29.4073 132.636 29.09C132.412 28.7633 132.3 28.3993 132.3 27.998C132.3 27.3447 132.561 26.8267 133.084 26.444C133.616 26.052 134.316 25.7907 135.184 25.66L137.102 25.38V25.086C137.102 24.694 137.004 24.3907 136.808 24.176C136.612 23.9613 136.276 23.854 135.8 23.854C135.464 23.854 135.188 23.924 134.974 24.064C134.768 24.1947 134.614 24.372 134.512 24.596C134.437 24.7173 134.33 24.778 134.19 24.778H133.084C132.981 24.778 132.902 24.75 132.846 24.694C132.799 24.638 132.776 24.5633 132.776 24.47C132.785 24.3207 132.846 24.1387 132.958 23.924C133.07 23.7093 133.247 23.504 133.49 23.308C133.732 23.1027 134.045 22.93 134.428 22.79C134.81 22.65 135.272 22.58 135.814 22.58C136.402 22.58 136.896 22.6547 137.298 22.804C137.708 22.944 138.035 23.1353 138.278 23.378C138.52 23.6207 138.698 23.9053 138.81 24.232C138.922 24.5587 138.978 24.904 138.978 25.268V29.664C138.978 29.7573 138.945 29.8367 138.88 29.902C138.814 29.9673 138.735 30 138.642 30H137.508C137.405 30 137.321 29.9673 137.256 29.902C137.2 29.8367 137.172 29.7573 137.172 29.664V29.118C137.05 29.2953 136.887 29.4633 136.682 29.622C136.476 29.7713 136.224 29.8973 135.926 30C135.636 30.0933 135.291 30.14 134.89 30.14ZM135.366 28.81C135.692 28.81 135.986 28.74 136.248 28.6C136.518 28.46 136.728 28.2453 136.878 27.956C137.036 27.6573 137.116 27.284 137.116 26.836V26.542L135.716 26.766C135.165 26.85 134.754 26.9853 134.484 27.172C134.213 27.3587 134.078 27.5873 134.078 27.858C134.078 28.0633 134.138 28.2407 134.26 28.39C134.39 28.53 134.554 28.6373 134.75 28.712C134.946 28.7773 135.151 28.81 135.366 28.81ZM150.427 30.91C150.296 30.91 150.189 30.868 150.105 30.784C150.03 30.7093 149.969 30.644 149.923 30.588L149.405 29.888C148.966 30.056 148.467 30.14 147.907 30.14C147.076 30.14 146.357 30.0047 145.751 29.734C145.153 29.454 144.687 29.0293 144.351 28.46C144.024 27.8813 143.842 27.1627 143.805 26.304C143.795 25.9027 143.791 25.506 143.791 25.114C143.791 24.722 143.795 24.3207 143.805 23.91C143.842 23.0607 144.029 22.3513 144.365 21.782C144.71 21.2127 145.186 20.7833 145.793 20.494C146.399 20.2047 147.104 20.06 147.907 20.06C148.709 20.06 149.414 20.2047 150.021 20.494C150.627 20.7833 151.103 21.2127 151.449 21.782C151.794 22.3513 151.976 23.0607 151.995 23.91C152.013 24.3207 152.023 24.722 152.023 25.114C152.023 25.506 152.013 25.9027 151.995 26.304C151.948 27.5267 151.612 28.4553 150.987 29.09L151.967 30.476C151.976 30.4853 151.985 30.4993 151.995 30.518C152.004 30.546 152.009 30.5787 152.009 30.616C152.018 30.7 151.99 30.77 151.925 30.826C151.869 30.882 151.803 30.91 151.729 30.91H150.427ZM147.907 28.53C148.504 28.53 148.994 28.3527 149.377 27.998C149.759 27.634 149.965 27.046 149.993 26.234C150.011 25.8233 150.021 25.4453 150.021 25.1C150.021 24.7453 150.011 24.3673 149.993 23.966C149.983 23.4247 149.885 22.986 149.699 22.65C149.512 22.3047 149.265 22.0573 148.957 21.908C148.658 21.7493 148.308 21.67 147.907 21.67C147.515 21.67 147.165 21.7493 146.857 21.908C146.549 22.0573 146.301 22.3047 146.115 22.65C145.937 22.986 145.835 23.4247 145.807 23.966C145.797 24.3673 145.793 24.7453 145.793 25.1C145.793 25.4453 145.797 25.8233 145.807 26.234C145.844 27.046 146.054 27.634 146.437 27.998C146.819 28.3527 147.309 28.53 147.907 28.53ZM156.409 30.14C155.84 30.14 155.345 30.014 154.925 29.762C154.515 29.5007 154.197 29.1367 153.973 28.67C153.749 28.194 153.637 27.634 153.637 26.99V23.056C153.637 22.9627 153.67 22.8833 153.735 22.818C153.801 22.7527 153.88 22.72 153.973 22.72H155.205C155.308 22.72 155.387 22.7527 155.443 22.818C155.509 22.8833 155.541 22.9627 155.541 23.056V26.906C155.541 28.0633 156.05 28.642 157.067 28.642C157.553 28.642 157.935 28.488 158.215 28.18C158.505 27.872 158.649 27.4473 158.649 26.906V23.056C158.649 22.9627 158.682 22.8833 158.747 22.818C158.813 22.7527 158.892 22.72 158.985 22.72H160.217C160.311 22.72 160.39 22.7527 160.455 22.818C160.521 22.8833 160.553 22.9627 160.553 23.056V29.664C160.553 29.7573 160.521 29.8367 160.455 29.902C160.39 29.9673 160.311 30 160.217 30H159.083C158.981 30 158.897 29.9673 158.831 29.902C158.775 29.8367 158.747 29.7573 158.747 29.664V29.09C158.495 29.4167 158.183 29.6733 157.809 29.86C157.436 30.0467 156.969 30.14 156.409 30.14ZM162.739 30C162.645 30 162.566 29.9673 162.501 29.902C162.435 29.8367 162.403 29.7573 162.403 29.664V23.056C162.403 22.9627 162.435 22.8833 162.501 22.818C162.566 22.7527 162.645 22.72 162.739 22.72H163.901C164.003 22.72 164.083 22.7527 164.139 22.818C164.204 22.8833 164.237 22.9627 164.237 23.056V29.664C164.237 29.7573 164.204 29.8367 164.139 29.902C164.083 29.9673 164.003 30 163.901 30H162.739ZM162.683 21.516C162.58 21.516 162.496 21.488 162.431 21.432C162.375 21.3667 162.347 21.2827 162.347 21.18V20.172C162.347 20.0787 162.375 19.9993 162.431 19.934C162.496 19.8687 162.58 19.836 162.683 19.836H163.957C164.059 19.836 164.143 19.8687 164.209 19.934C164.274 19.9993 164.307 20.0787 164.307 20.172V21.18C164.307 21.2827 164.274 21.3667 164.209 21.432C164.143 21.488 164.059 21.516 163.957 21.516H162.683ZM166.066 30C165.963 30 165.879 29.9673 165.814 29.902C165.758 29.8367 165.73 29.7573 165.73 29.664V28.866C165.73 28.782 165.749 28.7027 165.786 28.628C165.833 28.544 165.879 28.474 165.926 28.418L169.51 24.176H166.178C166.085 24.176 166.005 24.148 165.94 24.092C165.875 24.0267 165.842 23.9427 165.842 23.84V23.056C165.842 22.9627 165.875 22.8833 165.94 22.818C166.005 22.7527 166.085 22.72 166.178 22.72H171.484C171.587 22.72 171.666 22.7527 171.722 22.818C171.787 22.8833 171.82 22.9627 171.82 23.056V23.91C171.82 23.994 171.801 24.0687 171.764 24.134C171.727 24.1993 171.68 24.2693 171.624 24.344L168.124 28.544H171.778C171.871 28.544 171.951 28.5767 172.016 28.642C172.081 28.698 172.114 28.7773 172.114 28.88V29.664C172.114 29.7573 172.081 29.8367 172.016 29.902C171.951 29.9673 171.871 30 171.778 30H166.066ZM176.585 30.14C175.549 30.14 174.728 29.8413 174.121 29.244C173.515 28.6467 173.188 27.7973 173.141 26.696C173.132 26.6027 173.127 26.486 173.127 26.346C173.127 26.1967 173.132 26.08 173.141 25.996C173.179 25.296 173.337 24.6893 173.617 24.176C173.907 23.6627 174.303 23.2707 174.807 23C175.311 22.72 175.904 22.58 176.585 22.58C177.341 22.58 177.976 22.7387 178.489 23.056C179.003 23.364 179.39 23.798 179.651 24.358C179.913 24.9087 180.043 25.548 180.043 26.276V26.57C180.043 26.6633 180.011 26.7427 179.945 26.808C179.88 26.8733 179.796 26.906 179.693 26.906H175.045C175.045 26.906 175.045 26.92 175.045 26.948C175.045 26.976 175.045 26.9993 175.045 27.018C175.055 27.3447 175.115 27.648 175.227 27.928C175.349 28.1987 175.521 28.418 175.745 28.586C175.979 28.754 176.254 28.838 176.571 28.838C176.833 28.838 177.052 28.8007 177.229 28.726C177.407 28.642 177.551 28.5487 177.663 28.446C177.775 28.3433 177.855 28.2593 177.901 28.194C177.985 28.082 178.051 28.0167 178.097 27.998C178.153 27.97 178.233 27.956 178.335 27.956H179.539C179.633 27.956 179.707 27.984 179.763 28.04C179.829 28.096 179.857 28.166 179.847 28.25C179.838 28.3993 179.759 28.5813 179.609 28.796C179.469 29.0107 179.264 29.2207 178.993 29.426C178.723 29.6313 178.382 29.804 177.971 29.944C177.57 30.0747 177.108 30.14 176.585 30.14ZM175.045 25.73H178.139V25.688C178.139 25.324 178.079 25.0067 177.957 24.736C177.836 24.4653 177.659 24.2507 177.425 24.092C177.192 23.9333 176.912 23.854 176.585 23.854C176.259 23.854 175.979 23.9333 175.745 24.092C175.512 24.2507 175.335 24.4653 175.213 24.736C175.101 25.0067 175.045 25.324 175.045 25.688V25.73Z" fill="#1A1A1A"/>
<path d="M99.1 51C99.0267 51 98.97 50.98 98.93 50.94C98.89 50.8933 98.87 50.8367 98.87 50.77V44.23C98.87 44.1633 98.89 44.11 98.93 44.07C98.97 44.0233 99.0267 44 99.1 44H99.63C99.6967 44 99.75 44.0233 99.79 44.07C99.83 44.11 99.85 44.1633 99.85 44.23V50.13H103.18C103.253 50.13 103.31 50.1533 103.35 50.2C103.39 50.24 103.41 50.2967 103.41 50.37V50.77C103.41 50.8367 103.39 50.8933 103.35 50.94C103.31 50.98 103.253 51 103.18 51H99.1ZM106.397 51.1C105.891 51.1 105.467 51.0033 105.127 50.81C104.787 50.6167 104.527 50.35 104.347 50.01C104.167 49.6633 104.067 49.27 104.047 48.83C104.041 48.7167 104.037 48.5733 104.037 48.4C104.037 48.22 104.041 48.0767 104.047 47.97C104.067 47.5233 104.167 47.13 104.347 46.79C104.534 46.45 104.797 46.1833 105.137 45.99C105.477 45.7967 105.897 45.7 106.397 45.7C106.897 45.7 107.317 45.7967 107.657 45.99C107.997 46.1833 108.257 46.45 108.437 46.79C108.624 47.13 108.727 47.5233 108.747 47.97C108.754 48.0767 108.757 48.22 108.757 48.4C108.757 48.5733 108.754 48.7167 108.747 48.83C108.727 49.27 108.627 49.6633 108.447 50.01C108.267 50.35 108.007 50.6167 107.667 50.81C107.327 51.0033 106.904 51.1 106.397 51.1ZM106.397 50.33C106.811 50.33 107.141 50.2 107.387 49.94C107.634 49.6733 107.767 49.2867 107.787 48.78C107.794 48.68 107.797 48.5533 107.797 48.4C107.797 48.2467 107.794 48.12 107.787 48.02C107.767 47.5133 107.634 47.13 107.387 46.87C107.141 46.6033 106.811 46.47 106.397 46.47C105.984 46.47 105.651 46.6033 105.397 46.87C105.151 47.13 105.021 47.5133 105.007 48.02C105.001 48.12 104.997 48.2467 104.997 48.4C104.997 48.5533 105.001 48.68 105.007 48.78C105.021 49.2867 105.151 49.6733 105.397 49.94C105.651 50.2 105.984 50.33 106.397 50.33ZM110.24 51C110.173 51 110.116 50.98 110.07 50.94C110.03 50.8933 110.01 50.8367 110.01 50.77V46.04C110.01 45.9733 110.03 45.9167 110.07 45.87C110.116 45.8233 110.173 45.8 110.24 45.8H110.7C110.766 45.8 110.823 45.8233 110.87 45.87C110.916 45.9167 110.94 45.9733 110.94 46.04V46.48C111.073 46.2533 111.256 46.0833 111.49 45.97C111.723 45.8567 112.003 45.8 112.33 45.8H112.73C112.796 45.8 112.85 45.8233 112.89 45.87C112.93 45.91 112.95 45.9633 112.95 46.03V46.44C112.95 46.5067 112.93 46.56 112.89 46.6C112.85 46.64 112.796 46.66 112.73 46.66H112.13C111.77 46.66 111.486 46.7667 111.28 46.98C111.073 47.1867 110.97 47.47 110.97 47.83V50.77C110.97 50.8367 110.946 50.8933 110.9 50.94C110.853 50.98 110.796 51 110.73 51H110.24ZM115.781 51.1C115.094 51.1 114.547 50.89 114.141 50.47C113.734 50.0433 113.511 49.4633 113.471 48.73C113.464 48.6433 113.461 48.5333 113.461 48.4C113.461 48.26 113.464 48.1467 113.471 48.06C113.497 47.5867 113.607 47.1733 113.801 46.82C113.994 46.46 114.257 46.1833 114.591 45.99C114.931 45.7967 115.327 45.7 115.781 45.7C116.287 45.7 116.711 45.8067 117.051 46.02C117.397 46.2333 117.661 46.5367 117.841 46.93C118.021 47.3233 118.111 47.7833 118.111 48.31V48.48C118.111 48.5533 118.087 48.61 118.041 48.65C118.001 48.69 117.947 48.71 117.881 48.71H114.421C114.421 48.7167 114.421 48.73 114.421 48.75C114.421 48.77 114.421 48.7867 114.421 48.8C114.434 49.0733 114.494 49.33 114.601 49.57C114.707 49.8033 114.861 49.9933 115.061 50.14C115.261 50.2867 115.501 50.36 115.781 50.36C116.021 50.36 116.221 50.3233 116.381 50.25C116.541 50.1767 116.671 50.0967 116.771 50.01C116.871 49.9167 116.937 49.8467 116.971 49.8C117.031 49.7133 117.077 49.6633 117.111 49.65C117.144 49.63 117.197 49.62 117.271 49.62H117.751C117.817 49.62 117.871 49.64 117.911 49.68C117.957 49.7133 117.977 49.7633 117.971 49.83C117.964 49.93 117.911 50.0533 117.811 50.2C117.711 50.34 117.567 50.48 117.381 50.62C117.194 50.76 116.967 50.8767 116.701 50.97C116.434 51.0567 116.127 51.1 115.781 51.1ZM114.421 48.02H117.161V47.99C117.161 47.69 117.104 47.4233 116.991 47.19C116.884 46.9567 116.727 46.7733 116.521 46.64C116.314 46.5 116.067 46.43 115.781 46.43C115.494 46.43 115.247 46.5 115.041 46.64C114.841 46.7733 114.687 46.9567 114.581 47.19C114.474 47.4233 114.421 47.69 114.421 47.99V48.02ZM119.536 51C119.47 51 119.413 50.98 119.366 50.94C119.326 50.8933 119.306 50.8367 119.306 50.77V46.03C119.306 45.9633 119.326 45.91 119.366 45.87C119.413 45.8233 119.47 45.8 119.536 45.8H119.986C120.053 45.8 120.106 45.8233 120.146 45.87C120.193 45.91 120.216 45.9633 120.216 46.03V46.38C120.37 46.1733 120.563 46.01 120.796 45.89C121.03 45.7633 121.31 45.7 121.636 45.7C122.39 45.6933 122.923 46 123.236 46.62C123.39 46.34 123.613 46.1167 123.906 45.95C124.2 45.7833 124.533 45.7 124.906 45.7C125.253 45.7 125.566 45.78 125.846 45.94C126.133 46.1 126.356 46.3433 126.516 46.67C126.683 46.99 126.766 47.3933 126.766 47.88V50.77C126.766 50.8367 126.743 50.8933 126.696 50.94C126.656 50.98 126.603 51 126.536 51H126.066C126 51 125.943 50.98 125.896 50.94C125.856 50.8933 125.836 50.8367 125.836 50.77V47.97C125.836 47.5967 125.783 47.3033 125.676 47.09C125.57 46.8767 125.426 46.7267 125.246 46.64C125.066 46.5533 124.87 46.51 124.656 46.51C124.483 46.51 124.306 46.5533 124.126 46.64C123.946 46.7267 123.796 46.8767 123.676 47.09C123.563 47.3033 123.506 47.5967 123.506 47.97V50.77C123.506 50.8367 123.483 50.8933 123.436 50.94C123.396 50.98 123.343 51 123.276 51H122.806C122.74 51 122.683 50.98 122.636 50.94C122.596 50.8933 122.576 50.8367 122.576 50.77V47.97C122.576 47.5967 122.52 47.3033 122.406 47.09C122.293 46.8767 122.146 46.7267 121.966 46.64C121.786 46.5533 121.596 46.51 121.396 46.51C121.223 46.51 121.046 46.5533 120.866 46.64C120.686 46.7267 120.536 46.8767 120.416 47.09C120.303 47.3033 120.246 47.5933 120.246 47.96V50.77C120.246 50.8367 120.223 50.8933 120.176 50.94C120.136 50.98 120.083 51 120.016 51H119.536ZM130.874 51C130.808 51 130.751 50.98 130.704 50.94C130.664 50.8933 130.644 50.8367 130.644 50.77V46.03C130.644 45.9633 130.664 45.91 130.704 45.87C130.751 45.8233 130.808 45.8 130.874 45.8H131.354C131.421 45.8 131.474 45.8233 131.514 45.87C131.554 45.91 131.574 45.9633 131.574 46.03V50.77C131.574 50.8367 131.554 50.8933 131.514 50.94C131.474 50.98 131.421 51 131.354 51H130.874ZM130.794 44.83C130.728 44.83 130.671 44.81 130.624 44.77C130.584 44.7233 130.564 44.6667 130.564 44.6V44.06C130.564 43.9933 130.584 43.94 130.624 43.9C130.671 43.8533 130.728 43.83 130.794 43.83H131.424C131.491 43.83 131.544 43.8533 131.584 43.9C131.631 43.94 131.654 43.9933 131.654 44.06V44.6C131.654 44.6667 131.631 44.7233 131.584 44.77C131.544 44.81 131.491 44.83 131.424 44.83H130.794ZM133.306 52.9C133.24 52.9 133.183 52.8767 133.136 52.83C133.096 52.79 133.076 52.7367 133.076 52.67V46.03C133.076 45.9633 133.096 45.91 133.136 45.87C133.183 45.8233 133.24 45.8 133.306 45.8H133.766C133.833 45.8 133.886 45.8233 133.926 45.87C133.973 45.91 133.996 45.9633 133.996 46.03V46.47C134.156 46.25 134.37 46.0667 134.636 45.92C134.903 45.7733 135.236 45.7 135.636 45.7C136.01 45.7 136.326 45.7633 136.586 45.89C136.853 46.0167 137.07 46.19 137.236 46.41C137.41 46.63 137.54 46.88 137.626 47.16C137.713 47.44 137.76 47.74 137.766 48.06C137.773 48.1667 137.776 48.28 137.776 48.4C137.776 48.52 137.773 48.6333 137.766 48.74C137.76 49.0533 137.713 49.3533 137.626 49.64C137.54 49.92 137.41 50.17 137.236 50.39C137.07 50.6033 136.853 50.7767 136.586 50.91C136.326 51.0367 136.01 51.1 135.636 51.1C135.25 51.1 134.923 51.03 134.656 50.89C134.396 50.7433 134.183 50.5633 134.016 50.35V52.67C134.016 52.7367 133.996 52.79 133.956 52.83C133.916 52.8767 133.86 52.9 133.786 52.9H133.306ZM135.426 50.29C135.773 50.29 136.043 50.2167 136.236 50.07C136.436 49.9167 136.58 49.72 136.666 49.48C136.753 49.2333 136.803 48.97 136.816 48.69C136.823 48.4967 136.823 48.3033 136.816 48.11C136.803 47.83 136.753 47.57 136.666 47.33C136.58 47.0833 136.436 46.8867 136.236 46.74C136.043 46.5867 135.773 46.51 135.426 46.51C135.1 46.51 134.833 46.5867 134.626 46.74C134.426 46.8933 134.276 47.09 134.176 47.33C134.083 47.5633 134.03 47.8033 134.016 48.05C134.01 48.1567 134.006 48.2833 134.006 48.43C134.006 48.5767 134.01 48.7067 134.016 48.82C134.023 49.0533 134.076 49.2833 134.176 49.51C134.283 49.7367 134.44 49.9233 134.646 50.07C134.853 50.2167 135.113 50.29 135.426 50.29ZM140.823 51.1C140.45 51.1 140.13 51.0533 139.863 50.96C139.597 50.8667 139.38 50.7533 139.213 50.62C139.047 50.4867 138.92 50.3533 138.833 50.22C138.753 50.0867 138.71 49.98 138.703 49.9C138.697 49.8267 138.72 49.77 138.773 49.73C138.827 49.69 138.88 49.67 138.933 49.67H139.373C139.413 49.67 139.443 49.6767 139.463 49.69C139.49 49.6967 139.523 49.7233 139.563 49.77C139.65 49.8633 139.747 49.9567 139.853 50.05C139.96 50.1433 140.09 50.22 140.243 50.28C140.403 50.34 140.6 50.37 140.833 50.37C141.173 50.37 141.453 50.3067 141.673 50.18C141.893 50.0467 142.003 49.8533 142.003 49.6C142.003 49.4333 141.957 49.3 141.863 49.2C141.777 49.1 141.617 49.01 141.383 48.93C141.157 48.85 140.843 48.7667 140.443 48.68C140.043 48.5867 139.727 48.4733 139.493 48.34C139.26 48.2 139.093 48.0367 138.993 47.85C138.893 47.6567 138.843 47.44 138.843 47.2C138.843 46.9533 138.917 46.7167 139.063 46.49C139.21 46.2567 139.423 46.0667 139.703 45.92C139.99 45.7733 140.347 45.7 140.773 45.7C141.12 45.7 141.417 45.7433 141.663 45.83C141.91 45.9167 142.113 46.0267 142.273 46.16C142.433 46.2867 142.553 46.4133 142.633 46.54C142.713 46.6667 142.757 46.7733 142.763 46.86C142.77 46.9267 142.75 46.9833 142.703 47.03C142.657 47.07 142.603 47.09 142.543 47.09H142.123C142.077 47.09 142.037 47.08 142.003 47.06C141.977 47.04 141.95 47.0167 141.923 46.99C141.857 46.9033 141.777 46.8167 141.683 46.73C141.597 46.6433 141.48 46.5733 141.333 46.52C141.193 46.46 141.007 46.43 140.773 46.43C140.44 46.43 140.19 46.5 140.023 46.64C139.857 46.78 139.773 46.9567 139.773 47.17C139.773 47.2967 139.81 47.41 139.883 47.51C139.957 47.61 140.097 47.7 140.303 47.78C140.51 47.86 140.817 47.9467 141.223 48.04C141.663 48.1267 142.01 48.2433 142.263 48.39C142.517 48.5367 142.697 48.7067 142.803 48.9C142.91 49.0933 142.963 49.3167 142.963 49.57C142.963 49.85 142.88 50.1067 142.713 50.34C142.553 50.5733 142.313 50.76 141.993 50.9C141.68 51.0333 141.29 51.1 140.823 51.1ZM146.061 51.1C145.634 51.1 145.271 51.0067 144.971 50.82C144.678 50.6267 144.454 50.36 144.301 50.02C144.148 49.68 144.071 49.29 144.071 48.85V46.03C144.071 45.9633 144.091 45.91 144.131 45.87C144.178 45.8233 144.234 45.8 144.301 45.8H144.801C144.868 45.8 144.921 45.8233 144.961 45.87C145.008 45.91 145.031 45.9633 145.031 46.03V48.8C145.031 49.7933 145.464 50.29 146.331 50.29C146.744 50.29 147.074 50.16 147.321 49.9C147.574 49.6333 147.701 49.2667 147.701 48.8V46.03C147.701 45.9633 147.721 45.91 147.761 45.87C147.808 45.8233 147.864 45.8 147.931 45.8H148.421C148.494 45.8 148.551 45.8233 148.591 45.87C148.631 45.91 148.651 45.9633 148.651 46.03V50.77C148.651 50.8367 148.631 50.8933 148.591 50.94C148.551 50.98 148.494 51 148.421 51H147.961C147.894 51 147.838 50.98 147.791 50.94C147.751 50.8933 147.731 50.8367 147.731 50.77V50.33C147.551 50.5633 147.331 50.75 147.071 50.89C146.818 51.03 146.481 51.1 146.061 51.1ZM150.366 51C150.3 51 150.243 50.98 150.196 50.94C150.156 50.8933 150.136 50.8367 150.136 50.77V46.03C150.136 45.9633 150.156 45.91 150.196 45.87C150.243 45.8233 150.3 45.8 150.366 45.8H150.816C150.883 45.8 150.936 45.8233 150.976 45.87C151.023 45.91 151.046 45.9633 151.046 46.03V46.38C151.2 46.1733 151.393 46.01 151.626 45.89C151.86 45.7633 152.14 45.7 152.466 45.7C153.22 45.6933 153.753 46 154.066 46.62C154.22 46.34 154.443 46.1167 154.736 45.95C155.03 45.7833 155.363 45.7 155.736 45.7C156.083 45.7 156.396 45.78 156.676 45.94C156.963 46.1 157.186 46.3433 157.346 46.67C157.513 46.99 157.596 47.3933 157.596 47.88V50.77C157.596 50.8367 157.573 50.8933 157.526 50.94C157.486 50.98 157.433 51 157.366 51H156.896C156.83 51 156.773 50.98 156.726 50.94C156.686 50.8933 156.666 50.8367 156.666 50.77V47.97C156.666 47.5967 156.613 47.3033 156.506 47.09C156.4 46.8767 156.256 46.7267 156.076 46.64C155.896 46.5533 155.7 46.51 155.486 46.51C155.313 46.51 155.136 46.5533 154.956 46.64C154.776 46.7267 154.626 46.8767 154.506 47.09C154.393 47.3033 154.336 47.5967 154.336 47.97V50.77C154.336 50.8367 154.313 50.8933 154.266 50.94C154.226 50.98 154.173 51 154.106 51H153.636C153.57 51 153.513 50.98 153.466 50.94C153.426 50.8933 153.406 50.8367 153.406 50.77V47.97C153.406 47.5967 153.35 47.3033 153.236 47.09C153.123 46.8767 152.976 46.7267 152.796 46.64C152.616 46.5533 152.426 46.51 152.226 46.51C152.053 46.51 151.876 46.5533 151.696 46.64C151.516 46.7267 151.366 46.8767 151.246 47.09C151.133 47.3033 151.076 47.5933 151.076 47.96V50.77C151.076 50.8367 151.053 50.8933 151.006 50.94C150.966 50.98 150.913 51 150.846 51H150.366ZM163.374 51.1C163.008 51.1 162.691 51.0367 162.424 50.91C162.158 50.7767 161.938 50.6 161.764 50.38C161.598 50.1533 161.471 49.8967 161.384 49.61C161.304 49.3233 161.258 49.02 161.244 48.7C161.238 48.5933 161.234 48.4933 161.234 48.4C161.234 48.3067 161.238 48.2067 161.244 48.1C161.258 47.7867 161.304 47.4867 161.384 47.2C161.471 46.9133 161.598 46.6567 161.764 46.43C161.938 46.2033 162.158 46.0267 162.424 45.9C162.691 45.7667 163.008 45.7 163.374 45.7C163.768 45.7 164.094 45.77 164.354 45.91C164.614 46.05 164.828 46.2233 164.994 46.43V44.13C164.994 44.0633 165.014 44.01 165.054 43.97C165.101 43.9233 165.158 43.9 165.224 43.9H165.704C165.771 43.9 165.824 43.9233 165.864 43.97C165.911 44.01 165.934 44.0633 165.934 44.13V50.77C165.934 50.8367 165.911 50.8933 165.864 50.94C165.824 50.98 165.771 51 165.704 51H165.254C165.181 51 165.124 50.98 165.084 50.94C165.044 50.8933 165.024 50.8367 165.024 50.77V50.35C164.858 50.5633 164.641 50.7433 164.374 50.89C164.108 51.03 163.774 51.1 163.374 51.1ZM163.584 50.29C163.918 50.29 164.184 50.2133 164.384 50.06C164.584 49.9067 164.734 49.7133 164.834 49.48C164.934 49.24 164.988 48.9967 164.994 48.75C165.001 48.6433 165.004 48.5167 165.004 48.37C165.004 48.2167 165.001 48.0867 164.994 47.98C164.988 47.7467 164.931 47.5167 164.824 47.29C164.724 47.0633 164.571 46.8767 164.364 46.73C164.164 46.5833 163.904 46.51 163.584 46.51C163.244 46.51 162.974 46.5867 162.774 46.74C162.574 46.8867 162.431 47.0833 162.344 47.33C162.258 47.57 162.208 47.83 162.194 48.11C162.188 48.3033 162.188 48.4967 162.194 48.69C162.208 48.97 162.258 49.2333 162.344 49.48C162.431 49.72 162.574 49.9167 162.774 50.07C162.974 50.2167 163.244 50.29 163.584 50.29ZM169.552 51.1C169.045 51.1 168.622 51.0033 168.282 50.81C167.942 50.6167 167.682 50.35 167.502 50.01C167.322 49.6633 167.222 49.27 167.202 48.83C167.195 48.7167 167.192 48.5733 167.192 48.4C167.192 48.22 167.195 48.0767 167.202 47.97C167.222 47.5233 167.322 47.13 167.502 46.79C167.688 46.45 167.952 46.1833 168.292 45.99C168.632 45.7967 169.052 45.7 169.552 45.7C170.052 45.7 170.472 45.7967 170.812 45.99C171.152 46.1833 171.412 46.45 171.592 46.79C171.778 47.13 171.882 47.5233 171.902 47.97C171.908 48.0767 171.912 48.22 171.912 48.4C171.912 48.5733 171.908 48.7167 171.902 48.83C171.882 49.27 171.782 49.6633 171.602 50.01C171.422 50.35 171.162 50.6167 170.822 50.81C170.482 51.0033 170.058 51.1 169.552 51.1ZM169.552 50.33C169.965 50.33 170.295 50.2 170.542 49.94C170.788 49.6733 170.922 49.2867 170.942 48.78C170.948 48.68 170.952 48.5533 170.952 48.4C170.952 48.2467 170.948 48.12 170.942 48.02C170.922 47.5133 170.788 47.13 170.542 46.87C170.295 46.6033 169.965 46.47 169.552 46.47C169.138 46.47 168.805 46.6033 168.552 46.87C168.305 47.13 168.175 47.5133 168.162 48.02C168.155 48.12 168.152 48.2467 168.152 48.4C168.152 48.5533 168.155 48.68 168.162 48.78C168.175 49.2867 168.305 49.6733 168.552 49.94C168.805 50.2 169.138 50.33 169.552 50.33ZM173.404 51C173.337 51 173.28 50.98 173.234 50.94C173.194 50.8933 173.174 50.8367 173.174 50.77V44.13C173.174 44.0633 173.194 44.01 173.234 43.97C173.28 43.9233 173.337 43.9 173.404 43.9H173.874C173.947 43.9 174.004 43.9233 174.044 43.97C174.084 44.01 174.104 44.0633 174.104 44.13V50.77C174.104 50.8367 174.084 50.8933 174.044 50.94C174.004 50.98 173.947 51 173.874 51H173.404ZM177.725 51.1C177.219 51.1 176.795 51.0033 176.455 50.81C176.115 50.6167 175.855 50.35 175.675 50.01C175.495 49.6633 175.395 49.27 175.375 48.83C175.369 48.7167 175.365 48.5733 175.365 48.4C175.365 48.22 175.369 48.0767 175.375 47.97C175.395 47.5233 175.495 47.13 175.675 46.79C175.862 46.45 176.125 46.1833 176.465 45.99C176.805 45.7967 177.225 45.7 177.725 45.7C178.225 45.7 178.645 45.7967 178.985 45.99C179.325 46.1833 179.585 46.45 179.765 46.79C179.952 47.13 180.055 47.5233 180.075 47.97C180.082 48.0767 180.085 48.22 180.085 48.4C180.085 48.5733 180.082 48.7167 180.075 48.83C180.055 49.27 179.955 49.6633 179.775 50.01C179.595 50.35 179.335 50.6167 178.995 50.81C178.655 51.0033 178.232 51.1 177.725 51.1ZM177.725 50.33C178.139 50.33 178.469 50.2 178.715 49.94C178.962 49.6733 179.095 49.2867 179.115 48.78C179.122 48.68 179.125 48.5533 179.125 48.4C179.125 48.2467 179.122 48.12 179.115 48.02C179.095 47.5133 178.962 47.13 178.715 46.87C178.469 46.6033 178.139 46.47 177.725 46.47C177.312 46.47 176.979 46.6033 176.725 46.87C176.479 47.13 176.349 47.5133 176.335 48.02C176.329 48.12 176.325 48.2467 176.325 48.4C176.325 48.5533 176.329 48.68 176.335 48.78C176.349 49.2867 176.479 49.6733 176.725 49.94C176.979 50.2 177.312 50.33 177.725 50.33ZM181.568 51C181.501 51 181.444 50.98 181.398 50.94C181.358 50.8933 181.338 50.8367 181.338 50.77V46.04C181.338 45.9733 181.358 45.9167 181.398 45.87C181.444 45.8233 181.501 45.8 181.568 45.8H182.028C182.094 45.8 182.151 45.8233 182.198 45.87C182.244 45.9167 182.268 45.9733 182.268 46.04V46.48C182.401 46.2533 182.584 46.0833 182.818 45.97C183.051 45.8567 183.331 45.8 183.658 45.8H184.058C184.124 45.8 184.178 45.8233 184.218 45.87C184.258 45.91 184.278 45.9633 184.278 46.03V46.44C184.278 46.5067 184.258 46.56 184.218 46.6C184.178 46.64 184.124 46.66 184.058 46.66H183.458C183.098 46.66 182.814 46.7667 182.608 46.98C182.401 47.1867 182.298 47.47 182.298 47.83V50.77C182.298 50.8367 182.274 50.8933 182.228 50.94C182.181 50.98 182.124 51 182.058 51H181.568ZM189.153 51.1C188.78 51.1 188.46 51.0533 188.193 50.96C187.927 50.8667 187.71 50.7533 187.543 50.62C187.377 50.4867 187.25 50.3533 187.163 50.22C187.083 50.0867 187.04 49.98 187.033 49.9C187.027 49.8267 187.05 49.77 187.103 49.73C187.157 49.69 187.21 49.67 187.263 49.67H187.703C187.743 49.67 187.773 49.6767 187.793 49.69C187.82 49.6967 187.853 49.7233 187.893 49.77C187.98 49.8633 188.077 49.9567 188.183 50.05C188.29 50.1433 188.42 50.22 188.573 50.28C188.733 50.34 188.93 50.37 189.163 50.37C189.503 50.37 189.783 50.3067 190.003 50.18C190.223 50.0467 190.333 49.8533 190.333 49.6C190.333 49.4333 190.287 49.3 190.193 49.2C190.107 49.1 189.947 49.01 189.713 48.93C189.487 48.85 189.173 48.7667 188.773 48.68C188.373 48.5867 188.057 48.4733 187.823 48.34C187.59 48.2 187.423 48.0367 187.323 47.85C187.223 47.6567 187.173 47.44 187.173 47.2C187.173 46.9533 187.247 46.7167 187.393 46.49C187.54 46.2567 187.753 46.0667 188.033 45.92C188.32 45.7733 188.677 45.7 189.103 45.7C189.45 45.7 189.747 45.7433 189.993 45.83C190.24 45.9167 190.443 46.0267 190.603 46.16C190.763 46.2867 190.883 46.4133 190.963 46.54C191.043 46.6667 191.087 46.7733 191.093 46.86C191.1 46.9267 191.08 46.9833 191.033 47.03C190.987 47.07 190.933 47.09 190.873 47.09H190.453C190.407 47.09 190.367 47.08 190.333 47.06C190.307 47.04 190.28 47.0167 190.253 46.99C190.187 46.9033 190.107 46.8167 190.013 46.73C189.927 46.6433 189.81 46.5733 189.663 46.52C189.523 46.46 189.337 46.43 189.103 46.43C188.77 46.43 188.52 46.5 188.353 46.64C188.187 46.78 188.103 46.9567 188.103 47.17C188.103 47.2967 188.14 47.41 188.213 47.51C188.287 47.61 188.427 47.7 188.633 47.78C188.84 47.86 189.147 47.9467 189.553 48.04C189.993 48.1267 190.34 48.2433 190.593 48.39C190.847 48.5367 191.027 48.7067 191.133 48.9C191.24 49.0933 191.293 49.3167 191.293 49.57C191.293 49.85 191.21 50.1067 191.043 50.34C190.883 50.5733 190.643 50.76 190.323 50.9C190.01 51.0333 189.62 51.1 189.153 51.1ZM192.681 51C192.614 51 192.558 50.98 192.511 50.94C192.471 50.8933 192.451 50.8367 192.451 50.77V46.03C192.451 45.9633 192.471 45.91 192.511 45.87C192.558 45.8233 192.614 45.8 192.681 45.8H193.161C193.228 45.8 193.281 45.8233 193.321 45.87C193.361 45.91 193.381 45.9633 193.381 46.03V50.77C193.381 50.8367 193.361 50.8933 193.321 50.94C193.281 50.98 193.228 51 193.161 51H192.681ZM192.601 44.83C192.534 44.83 192.478 44.81 192.431 44.77C192.391 44.7233 192.371 44.6667 192.371 44.6V44.06C192.371 43.9933 192.391 43.94 192.431 43.9C192.478 43.8533 192.534 43.83 192.601 43.83H193.231C193.298 43.83 193.351 43.8533 193.391 43.9C193.438 43.94 193.461 43.9933 193.461 44.06V44.6C193.461 44.6667 193.438 44.7233 193.391 44.77C193.351 44.81 193.298 44.83 193.231 44.83H192.601ZM196.903 51C196.529 51 196.226 50.93 195.993 50.79C195.759 50.6433 195.589 50.44 195.483 50.18C195.376 49.9133 195.323 49.6 195.323 49.24V46.6H194.543C194.476 46.6 194.419 46.58 194.373 46.54C194.333 46.4933 194.313 46.4367 194.313 46.37V46.03C194.313 45.9633 194.333 45.91 194.373 45.87C194.419 45.8233 194.476 45.8 194.543 45.8H195.323V44.13C195.323 44.0633 195.343 44.01 195.383 43.97C195.429 43.9233 195.486 43.9 195.553 43.9H196.023C196.089 43.9 196.143 43.9233 196.183 43.97C196.229 44.01 196.253 44.0633 196.253 44.13V45.8H197.493C197.559 45.8 197.613 45.8233 197.653 45.87C197.699 45.91 197.723 45.9633 197.723 46.03V46.37C197.723 46.4367 197.699 46.4933 197.653 46.54C197.613 46.58 197.559 46.6 197.493 46.6H196.253V49.17C196.253 49.4833 196.306 49.73 196.413 49.91C196.519 50.09 196.709 50.18 196.983 50.18H197.593C197.659 50.18 197.713 50.2033 197.753 50.25C197.799 50.29 197.823 50.3433 197.823 50.41V50.77C197.823 50.8367 197.799 50.8933 197.753 50.94C197.713 50.98 197.659 51 197.593 51H196.903ZM202.68 51.1C202.347 51.1 202.044 51.0333 201.77 50.9C201.497 50.7667 201.277 50.5867 201.11 50.36C200.944 50.1333 200.86 49.8767 200.86 49.59C200.86 49.13 201.047 48.7633 201.42 48.49C201.794 48.2167 202.28 48.0367 202.88 47.95L204.37 47.74V47.45C204.37 47.13 204.277 46.88 204.09 46.7C203.91 46.52 203.614 46.43 203.2 46.43C202.9 46.43 202.657 46.49 202.47 46.61C202.29 46.73 202.164 46.8833 202.09 47.07C202.05 47.17 201.98 47.22 201.88 47.22H201.43C201.357 47.22 201.3 47.2 201.26 47.16C201.227 47.1133 201.21 47.06 201.21 47C201.21 46.9 201.247 46.7767 201.32 46.63C201.4 46.4833 201.52 46.34 201.68 46.2C201.84 46.06 202.044 45.9433 202.29 45.85C202.544 45.75 202.85 45.7 203.21 45.7C203.61 45.7 203.947 45.7533 204.22 45.86C204.494 45.96 204.707 46.0967 204.86 46.27C205.02 46.4433 205.134 46.64 205.2 46.86C205.274 47.08 205.31 47.3033 205.31 47.53V50.77C205.31 50.8367 205.287 50.8933 205.24 50.94C205.2 50.98 205.147 51 205.08 51H204.62C204.547 51 204.49 50.98 204.45 50.94C204.41 50.8933 204.39 50.8367 204.39 50.77V50.34C204.304 50.46 204.187 50.58 204.04 50.7C203.894 50.8133 203.71 50.91 203.49 50.99C203.27 51.0633 203 51.1 202.68 51.1ZM202.89 50.35C203.164 50.35 203.414 50.2933 203.64 50.18C203.867 50.06 204.044 49.8767 204.17 49.63C204.304 49.3833 204.37 49.0733 204.37 48.7V48.42L203.21 48.59C202.737 48.6567 202.38 48.77 202.14 48.93C201.9 49.0833 201.78 49.28 201.78 49.52C201.78 49.7067 201.834 49.8633 201.94 49.99C202.054 50.11 202.194 50.2 202.36 50.26C202.534 50.32 202.71 50.35 202.89 50.35ZM206.978 51C206.911 51 206.854 50.98 206.808 50.94C206.768 50.8933 206.748 50.8367 206.748 50.77V46.03C206.748 45.9633 206.768 45.91 206.808 45.87C206.854 45.8233 206.911 45.8 206.978 45.8H207.428C207.494 45.8 207.548 45.8233 207.588 45.87C207.634 45.91 207.658 45.9633 207.658 46.03V46.38C207.811 46.1733 208.004 46.01 208.238 45.89C208.471 45.7633 208.751 45.7 209.078 45.7C209.831 45.6933 210.364 46 210.678 46.62C210.831 46.34 211.054 46.1167 211.348 45.95C211.641 45.7833 211.974 45.7 212.348 45.7C212.694 45.7 213.008 45.78 213.288 45.94C213.574 46.1 213.798 46.3433 213.958 46.67C214.124 46.99 214.208 47.3933 214.208 47.88V50.77C214.208 50.8367 214.184 50.8933 214.138 50.94C214.098 50.98 214.044 51 213.978 51H213.508C213.441 51 213.384 50.98 213.338 50.94C213.298 50.8933 213.278 50.8367 213.278 50.77V47.97C213.278 47.5967 213.224 47.3033 213.118 47.09C213.011 46.8767 212.868 46.7267 212.688 46.64C212.508 46.5533 212.311 46.51 212.098 46.51C211.924 46.51 211.748 46.5533 211.568 46.64C211.388 46.7267 211.238 46.8767 211.118 47.09C211.004 47.3033 210.948 47.5967 210.948 47.97V50.77C210.948 50.8367 210.924 50.8933 210.878 50.94C210.838 50.98 210.784 51 210.718 51H210.248C210.181 51 210.124 50.98 210.078 50.94C210.038 50.8933 210.018 50.8367 210.018 50.77V47.97C210.018 47.5967 209.961 47.3033 209.848 47.09C209.734 46.8767 209.588 46.7267 209.408 46.64C209.228 46.5533 209.038 46.51 208.838 46.51C208.664 46.51 208.488 46.5533 208.308 46.64C208.128 46.7267 207.978 46.8767 207.858 47.09C207.744 47.3033 207.688 47.5933 207.688 47.96V50.77C207.688 50.8367 207.664 50.8933 207.618 50.94C207.578 50.98 207.524 51 207.458 51H206.978ZM217.705 51.1C217.018 51.1 216.471 50.89 216.065 50.47C215.658 50.0433 215.435 49.4633 215.395 48.73C215.388 48.6433 215.385 48.5333 215.385 48.4C215.385 48.26 215.388 48.1467 215.395 48.06C215.421 47.5867 215.531 47.1733 215.725 46.82C215.918 46.46 216.181 46.1833 216.515 45.99C216.855 45.7967 217.251 45.7 217.705 45.7C218.211 45.7 218.635 45.8067 218.975 46.02C219.321 46.2333 219.585 46.5367 219.765 46.93C219.945 47.3233 220.035 47.7833 220.035 48.31V48.48C220.035 48.5533 220.011 48.61 219.965 48.65C219.925 48.69 219.871 48.71 219.805 48.71H216.345C216.345 48.7167 216.345 48.73 216.345 48.75C216.345 48.77 216.345 48.7867 216.345 48.8C216.358 49.0733 216.418 49.33 216.525 49.57C216.631 49.8033 216.785 49.9933 216.985 50.14C217.185 50.2867 217.425 50.36 217.705 50.36C217.945 50.36 218.145 50.3233 218.305 50.25C218.465 50.1767 218.595 50.0967 218.695 50.01C218.795 49.9167 218.861 49.8467 218.895 49.8C218.955 49.7133 219.001 49.6633 219.035 49.65C219.068 49.63 219.121 49.62 219.195 49.62H219.675C219.741 49.62 219.795 49.64 219.835 49.68C219.881 49.7133 219.901 49.7633 219.895 49.83C219.888 49.93 219.835 50.0533 219.735 50.2C219.635 50.34 219.491 50.48 219.305 50.62C219.118 50.76 218.891 50.8767 218.625 50.97C218.358 51.0567 218.051 51.1 217.705 51.1ZM216.345 48.02H219.085V47.99C219.085 47.69 219.028 47.4233 218.915 47.19C218.808 46.9567 218.651 46.7733 218.445 46.64C218.238 46.5 217.991 46.43 217.705 46.43C217.418 46.43 217.171 46.5 216.965 46.64C216.765 46.7733 216.611 46.9567 216.505 47.19C216.398 47.4233 216.345 47.69 216.345 47.99V48.02ZM223.231 51C222.858 51 222.554 50.93 222.321 50.79C222.088 50.6433 221.918 50.44 221.811 50.18C221.704 49.9133 221.651 49.6 221.651 49.24V46.6H220.871C220.804 46.6 220.748 46.58 220.701 46.54C220.661 46.4933 220.641 46.4367 220.641 46.37V46.03C220.641 45.9633 220.661 45.91 220.701 45.87C220.748 45.8233 220.804 45.8 220.871 45.8H221.651V44.13C221.651 44.0633 221.671 44.01 221.711 43.97C221.758 43.9233 221.814 43.9 221.881 43.9H222.351C222.418 43.9 222.471 43.9233 222.511 43.97C222.558 44.01 222.581 44.0633 222.581 44.13V45.8H223.821C223.888 45.8 223.941 45.8233 223.981 45.87C224.028 45.91 224.051 45.9633 224.051 46.03V46.37C224.051 46.4367 224.028 46.4933 223.981 46.54C223.941 46.58 223.888 46.6 223.821 46.6H222.581V49.17C222.581 49.4833 222.634 49.73 222.741 49.91C222.848 50.09 223.038 50.18 223.311 50.18H223.921C223.988 50.18 224.041 50.2033 224.081 50.25C224.128 50.29 224.151 50.3433 224.151 50.41V50.77C224.151 50.8367 224.128 50.8933 224.081 50.94C224.041 50.98 223.988 51 223.921 51H223.231ZM100.84 63.1C100.367 63.1 99.9567 63.01 99.61 62.83C99.27 62.6433 99.0067 62.38 98.82 62.04C98.6333 61.6933 98.5333 61.28 98.52 60.8C98.5133 60.7 98.51 60.5667 98.51 60.4C98.51 60.2333 98.5133 60.1 98.52 60C98.5333 59.52 98.6333 59.11 98.82 58.77C99.0067 58.4233 99.27 58.16 99.61 57.98C99.9567 57.7933 100.367 57.7 100.84 57.7C101.227 57.7 101.557 57.7533 101.83 57.86C102.11 57.9667 102.34 58.1033 102.52 58.27C102.7 58.4367 102.833 58.6167 102.92 58.81C103.013 59.0033 103.063 59.1867 103.07 59.36C103.077 59.4267 103.057 59.48 103.01 59.52C102.963 59.56 102.907 59.58 102.84 59.58H102.36C102.293 59.58 102.243 59.5667 102.21 59.54C102.177 59.5067 102.143 59.4533 102.11 59.38C101.99 59.0533 101.827 58.8233 101.62 58.69C101.413 58.5567 101.157 58.49 100.85 58.49C100.45 58.49 100.123 58.6133 99.87 58.86C99.6233 59.1067 99.49 59.5033 99.47 60.05C99.4633 60.29 99.4633 60.5233 99.47 60.75C99.49 61.3033 99.6233 61.7033 99.87 61.95C100.123 62.19 100.45 62.31 100.85 62.31C101.157 62.31 101.413 62.2433 101.62 62.11C101.827 61.9767 101.99 61.7467 102.11 61.42C102.143 61.3467 102.177 61.2967 102.21 61.27C102.243 61.2367 102.293 61.22 102.36 61.22H102.84C102.907 61.22 102.963 61.24 103.01 61.28C103.057 61.32 103.077 61.3733 103.07 61.44C103.063 61.58 103.033 61.7233 102.98 61.87C102.927 62.0167 102.84 62.1667 102.72 62.32C102.607 62.4667 102.463 62.6 102.29 62.72C102.117 62.8333 101.907 62.9267 101.66 63C101.42 63.0667 101.147 63.1 100.84 63.1ZM106.388 63.1C105.881 63.1 105.458 63.0033 105.118 62.81C104.778 62.6167 104.518 62.35 104.338 62.01C104.158 61.6633 104.058 61.27 104.038 60.83C104.031 60.7167 104.028 60.5733 104.028 60.4C104.028 60.22 104.031 60.0767 104.038 59.97C104.058 59.5233 104.158 59.13 104.338 58.79C104.524 58.45 104.788 58.1833 105.128 57.99C105.468 57.7967 105.888 57.7 106.388 57.7C106.888 57.7 107.308 57.7967 107.648 57.99C107.988 58.1833 108.248 58.45 108.428 58.79C108.614 59.13 108.718 59.5233 108.738 59.97C108.744 60.0767 108.748 60.22 108.748 60.4C108.748 60.5733 108.744 60.7167 108.738 60.83C108.718 61.27 108.618 61.6633 108.438 62.01C108.258 62.35 107.998 62.6167 107.658 62.81C107.318 63.0033 106.894 63.1 106.388 63.1ZM106.388 62.33C106.801 62.33 107.131 62.2 107.378 61.94C107.624 61.6733 107.758 61.2867 107.778 60.78C107.784 60.68 107.788 60.5533 107.788 60.4C107.788 60.2467 107.784 60.12 107.778 60.02C107.758 59.5133 107.624 59.13 107.378 58.87C107.131 58.6033 106.801 58.47 106.388 58.47C105.974 58.47 105.641 58.6033 105.388 58.87C105.141 59.13 105.011 59.5133 104.998 60.02C104.991 60.12 104.988 60.2467 104.988 60.4C104.988 60.5533 104.991 60.68 104.998 60.78C105.011 61.2867 105.141 61.6733 105.388 61.94C105.641 62.2 105.974 62.33 106.388 62.33ZM110.23 63C110.163 63 110.106 62.98 110.06 62.94C110.02 62.8933 110 62.8367 110 62.77V58.03C110 57.9633 110.02 57.91 110.06 57.87C110.106 57.8233 110.163 57.8 110.23 57.8H110.7C110.766 57.8 110.82 57.8233 110.86 57.87C110.906 57.91 110.93 57.9633 110.93 58.03V58.47C111.103 58.2433 111.32 58.06 111.58 57.92C111.846 57.7733 112.186 57.7 112.6 57.7C113.033 57.7 113.4 57.7967 113.7 57.99C114.006 58.1767 114.236 58.44 114.39 58.78C114.543 59.1133 114.62 59.5033 114.62 59.95V62.77C114.62 62.8367 114.6 62.8933 114.56 62.94C114.52 62.98 114.466 63 114.4 63H113.9C113.833 63 113.776 62.98 113.73 62.94C113.69 62.8933 113.67 62.8367 113.67 62.77V60C113.67 59.5333 113.556 59.17 113.33 58.91C113.103 58.6433 112.77 58.51 112.33 58.51C111.916 58.51 111.583 58.6433 111.33 58.91C111.083 59.17 110.96 59.5333 110.96 60V62.77C110.96 62.8367 110.936 62.8933 110.89 62.94C110.85 62.98 110.796 63 110.73 63H110.23ZM117.864 63.1C117.491 63.1 117.171 63.0533 116.904 62.96C116.638 62.8667 116.421 62.7533 116.254 62.62C116.088 62.4867 115.961 62.3533 115.874 62.22C115.794 62.0867 115.751 61.98 115.744 61.9C115.738 61.8267 115.761 61.77 115.814 61.73C115.868 61.69 115.921 61.67 115.974 61.67H116.414C116.454 61.67 116.484 61.6767 116.504 61.69C116.531 61.6967 116.564 61.7233 116.604 61.77C116.691 61.8633 116.788 61.9567 116.894 62.05C117.001 62.1433 117.131 62.22 117.284 62.28C117.444 62.34 117.641 62.37 117.874 62.37C118.214 62.37 118.494 62.3067 118.714 62.18C118.934 62.0467 119.044 61.8533 119.044 61.6C119.044 61.4333 118.998 61.3 118.904 61.2C118.818 61.1 118.658 61.01 118.424 60.93C118.198 60.85 117.884 60.7667 117.484 60.68C117.084 60.5867 116.768 60.4733 116.534 60.34C116.301 60.2 116.134 60.0367 116.034 59.85C115.934 59.6567 115.884 59.44 115.884 59.2C115.884 58.9533 115.958 58.7167 116.104 58.49C116.251 58.2567 116.464 58.0667 116.744 57.92C117.031 57.7733 117.388 57.7 117.814 57.7C118.161 57.7 118.458 57.7433 118.704 57.83C118.951 57.9167 119.154 58.0267 119.314 58.16C119.474 58.2867 119.594 58.4133 119.674 58.54C119.754 58.6667 119.798 58.7733 119.804 58.86C119.811 58.9267 119.791 58.9833 119.744 59.03C119.698 59.07 119.644 59.09 119.584 59.09H119.164C119.118 59.09 119.078 59.08 119.044 59.06C119.018 59.04 118.991 59.0167 118.964 58.99C118.898 58.9033 118.818 58.8167 118.724 58.73C118.638 58.6433 118.521 58.5733 118.374 58.52C118.234 58.46 118.048 58.43 117.814 58.43C117.481 58.43 117.231 58.5 117.064 58.64C116.898 58.78 116.814 58.9567 116.814 59.17C116.814 59.2967 116.851 59.41 116.924 59.51C116.998 59.61 117.138 59.7 117.344 59.78C117.551 59.86 117.858 59.9467 118.264 60.04C118.704 60.1267 119.051 60.2433 119.304 60.39C119.558 60.5367 119.738 60.7067 119.844 60.9C119.951 61.0933 120.004 61.3167 120.004 61.57C120.004 61.85 119.921 62.1067 119.754 62.34C119.594 62.5733 119.354 62.76 119.034 62.9C118.721 63.0333 118.331 63.1 117.864 63.1ZM123.232 63.1C122.545 63.1 121.999 62.89 121.592 62.47C121.185 62.0433 120.962 61.4633 120.922 60.73C120.915 60.6433 120.912 60.5333 120.912 60.4C120.912 60.26 120.915 60.1467 120.922 60.06C120.949 59.5867 121.059 59.1733 121.252 58.82C121.445 58.46 121.709 58.1833 122.042 57.99C122.382 57.7967 122.779 57.7 123.232 57.7C123.739 57.7 124.162 57.8067 124.502 58.02C124.849 58.2333 125.112 58.5367 125.292 58.93C125.472 59.3233 125.562 59.7833 125.562 60.31V60.48C125.562 60.5533 125.539 60.61 125.492 60.65C125.452 60.69 125.399 60.71 125.332 60.71H121.872C121.872 60.7167 121.872 60.73 121.872 60.75C121.872 60.77 121.872 60.7867 121.872 60.8C121.885 61.0733 121.945 61.33 122.052 61.57C122.159 61.8033 122.312 61.9933 122.512 62.14C122.712 62.2867 122.952 62.36 123.232 62.36C123.472 62.36 123.672 62.3233 123.832 62.25C123.992 62.1767 124.122 62.0967 124.222 62.01C124.322 61.9167 124.389 61.8467 124.422 61.8C124.482 61.7133 124.529 61.6633 124.562 61.65C124.595 61.63 124.649 61.62 124.722 61.62H125.202C125.269 61.62 125.322 61.64 125.362 61.68C125.409 61.7133 125.429 61.7633 125.422 61.83C125.415 61.93 125.362 62.0533 125.262 62.2C125.162 62.34 125.019 62.48 124.832 62.62C124.645 62.76 124.419 62.8767 124.152 62.97C123.885 63.0567 123.579 63.1 123.232 63.1ZM121.872 60.02H124.612V59.99C124.612 59.69 124.555 59.4233 124.442 59.19C124.335 58.9567 124.179 58.7733 123.972 58.64C123.765 58.5 123.519 58.43 123.232 58.43C122.945 58.43 122.699 58.5 122.492 58.64C122.292 58.7733 122.139 58.9567 122.032 59.19C121.925 59.4233 121.872 59.69 121.872 59.99V60.02ZM128.858 63.1C128.384 63.1 127.974 63.01 127.628 62.83C127.288 62.6433 127.024 62.38 126.838 62.04C126.651 61.6933 126.551 61.28 126.538 60.8C126.531 60.7 126.528 60.5667 126.528 60.4C126.528 60.2333 126.531 60.1 126.538 60C126.551 59.52 126.651 59.11 126.838 58.77C127.024 58.4233 127.288 58.16 127.628 57.98C127.974 57.7933 128.384 57.7 128.858 57.7C129.244 57.7 129.574 57.7533 129.848 57.86C130.128 57.9667 130.358 58.1033 130.538 58.27C130.718 58.4367 130.851 58.6167 130.938 58.81C131.031 59.0033 131.081 59.1867 131.088 59.36C131.094 59.4267 131.074 59.48 131.028 59.52C130.981 59.56 130.924 59.58 130.858 59.58H130.378C130.311 59.58 130.261 59.5667 130.228 59.54C130.194 59.5067 130.161 59.4533 130.128 59.38C130.008 59.0533 129.844 58.8233 129.638 58.69C129.431 58.5567 129.174 58.49 128.868 58.49C128.468 58.49 128.141 58.6133 127.888 58.86C127.641 59.1067 127.508 59.5033 127.488 60.05C127.481 60.29 127.481 60.5233 127.488 60.75C127.508 61.3033 127.641 61.7033 127.888 61.95C128.141 62.19 128.468 62.31 128.868 62.31C129.174 62.31 129.431 62.2433 129.638 62.11C129.844 61.9767 130.008 61.7467 130.128 61.42C130.161 61.3467 130.194 61.2967 130.228 61.27C130.261 61.2367 130.311 61.22 130.378 61.22H130.858C130.924 61.22 130.981 61.24 131.028 61.28C131.074 61.32 131.094 61.3733 131.088 61.44C131.081 61.58 131.051 61.7233 130.998 61.87C130.944 62.0167 130.858 62.1667 130.738 62.32C130.624 62.4667 130.481 62.6 130.308 62.72C130.134 62.8333 129.924 62.9267 129.678 63C129.438 63.0667 129.164 63.1 128.858 63.1ZM134.305 63C133.932 63 133.628 62.93 133.395 62.79C133.162 62.6433 132.992 62.44 132.885 62.18C132.778 61.9133 132.725 61.6 132.725 61.24V58.6H131.945C131.878 58.6 131.822 58.58 131.775 58.54C131.735 58.4933 131.715 58.4367 131.715 58.37V58.03C131.715 57.9633 131.735 57.91 131.775 57.87C131.822 57.8233 131.878 57.8 131.945 57.8H132.725V56.13C132.725 56.0633 132.745 56.01 132.785 55.97C132.832 55.9233 132.888 55.9 132.955 55.9H133.425C133.492 55.9 133.545 55.9233 133.585 55.97C133.632 56.01 133.655 56.0633 133.655 56.13V57.8H134.895C134.962 57.8 135.015 57.8233 135.055 57.87C135.102 57.91 135.125 57.9633 135.125 58.03V58.37C135.125 58.4367 135.102 58.4933 135.055 58.54C135.015 58.58 134.962 58.6 134.895 58.6H133.655V61.17C133.655 61.4833 133.708 61.73 133.815 61.91C133.922 62.09 134.112 62.18 134.385 62.18H134.995C135.062 62.18 135.115 62.2033 135.155 62.25C135.202 62.29 135.225 62.3433 135.225 62.41V62.77C135.225 62.8367 135.202 62.8933 135.155 62.94C135.115 62.98 135.062 63 134.995 63H134.305ZM138.251 63.1C137.565 63.1 137.018 62.89 136.611 62.47C136.205 62.0433 135.981 61.4633 135.941 60.73C135.935 60.6433 135.931 60.5333 135.931 60.4C135.931 60.26 135.935 60.1467 135.941 60.06C135.968 59.5867 136.078 59.1733 136.271 58.82C136.465 58.46 136.728 58.1833 137.061 57.99C137.401 57.7967 137.798 57.7 138.251 57.7C138.758 57.7 139.181 57.8067 139.521 58.02C139.868 58.2333 140.131 58.5367 140.311 58.93C140.491 59.3233 140.581 59.7833 140.581 60.31V60.48C140.581 60.5533 140.558 60.61 140.511 60.65C140.471 60.69 140.418 60.71 140.351 60.71H136.891C136.891 60.7167 136.891 60.73 136.891 60.75C136.891 60.77 136.891 60.7867 136.891 60.8C136.905 61.0733 136.965 61.33 137.071 61.57C137.178 61.8033 137.331 61.9933 137.531 62.14C137.731 62.2867 137.971 62.36 138.251 62.36C138.491 62.36 138.691 62.3233 138.851 62.25C139.011 62.1767 139.141 62.0967 139.241 62.01C139.341 61.9167 139.408 61.8467 139.441 61.8C139.501 61.7133 139.548 61.6633 139.581 61.65C139.615 61.63 139.668 61.62 139.741 61.62H140.221C140.288 61.62 140.341 61.64 140.381 61.68C140.428 61.7133 140.448 61.7633 140.441 61.83C140.435 61.93 140.381 62.0533 140.281 62.2C140.181 62.34 140.038 62.48 139.851 62.62C139.665 62.76 139.438 62.8767 139.171 62.97C138.905 63.0567 138.598 63.1 138.251 63.1ZM136.891 60.02H139.631V59.99C139.631 59.69 139.575 59.4233 139.461 59.19C139.355 58.9567 139.198 58.7733 138.991 58.64C138.785 58.5 138.538 58.43 138.251 58.43C137.965 58.43 137.718 58.5 137.511 58.64C137.311 58.7733 137.158 58.9567 137.051 59.19C136.945 59.4233 136.891 59.69 136.891 59.99V60.02ZM143.778 63C143.404 63 143.101 62.93 142.868 62.79C142.634 62.6433 142.464 62.44 142.358 62.18C142.251 61.9133 142.198 61.6 142.198 61.24V58.6H141.418C141.351 58.6 141.294 58.58 141.248 58.54C141.208 58.4933 141.188 58.4367 141.188 58.37V58.03C141.188 57.9633 141.208 57.91 141.248 57.87C141.294 57.8233 141.351 57.8 141.418 57.8H142.198V56.13C142.198 56.0633 142.218 56.01 142.258 55.97C142.304 55.9233 142.361 55.9 142.428 55.9H142.898C142.964 55.9 143.018 55.9233 143.058 55.97C143.104 56.01 143.128 56.0633 143.128 56.13V57.8H144.368C144.434 57.8 144.488 57.8233 144.528 57.87C144.574 57.91 144.598 57.9633 144.598 58.03V58.37C144.598 58.4367 144.574 58.4933 144.528 58.54C144.488 58.58 144.434 58.6 144.368 58.6H143.128V61.17C143.128 61.4833 143.181 61.73 143.288 61.91C143.394 62.09 143.584 62.18 143.858 62.18H144.468C144.534 62.18 144.588 62.2033 144.628 62.25C144.674 62.29 144.698 62.3433 144.698 62.41V62.77C144.698 62.8367 144.674 62.8933 144.628 62.94C144.588 62.98 144.534 63 144.468 63H143.778ZM147.594 63.1C147.167 63.1 146.804 63.0067 146.504 62.82C146.211 62.6267 145.987 62.36 145.834 62.02C145.681 61.68 145.604 61.29 145.604 60.85V58.03C145.604 57.9633 145.624 57.91 145.664 57.87C145.711 57.8233 145.767 57.8 145.834 57.8H146.334C146.401 57.8 146.454 57.8233 146.494 57.87C146.541 57.91 146.564 57.9633 146.564 58.03V60.8C146.564 61.7933 146.997 62.29 147.864 62.29C148.277 62.29 148.607 62.16 148.854 61.9C149.107 61.6333 149.234 61.2667 149.234 60.8V58.03C149.234 57.9633 149.254 57.91 149.294 57.87C149.341 57.8233 149.397 57.8 149.464 57.8H149.954C150.027 57.8 150.084 57.8233 150.124 57.87C150.164 57.91 150.184 57.9633 150.184 58.03V62.77C150.184 62.8367 150.164 62.8933 150.124 62.94C150.084 62.98 150.027 63 149.954 63H149.494C149.427 63 149.371 62.98 149.324 62.94C149.284 62.8933 149.264 62.8367 149.264 62.77V62.33C149.084 62.5633 148.864 62.75 148.604 62.89C148.351 63.03 148.014 63.1 147.594 63.1ZM151.9 63C151.833 63 151.776 62.98 151.73 62.94C151.69 62.8933 151.67 62.8367 151.67 62.77V58.04C151.67 57.9733 151.69 57.9167 151.73 57.87C151.776 57.8233 151.833 57.8 151.9 57.8H152.36C152.426 57.8 152.483 57.8233 152.53 57.87C152.576 57.9167 152.6 57.9733 152.6 58.04V58.48C152.733 58.2533 152.916 58.0833 153.15 57.97C153.383 57.8567 153.663 57.8 153.99 57.8H154.39C154.456 57.8 154.51 57.8233 154.55 57.87C154.59 57.91 154.61 57.9633 154.61 58.03V58.44C154.61 58.5067 154.59 58.56 154.55 58.6C154.51 58.64 154.456 58.66 154.39 58.66H153.79C153.43 58.66 153.146 58.7667 152.94 58.98C152.733 59.1867 152.63 59.47 152.63 59.83V62.77C152.63 62.8367 152.606 62.8933 152.56 62.94C152.513 62.98 152.456 63 152.39 63H151.9ZM155.091 63C155.025 63 154.968 62.98 154.921 62.94C154.881 62.8933 154.861 62.8367 154.861 62.77V62.05C154.861 61.9833 154.881 61.93 154.921 61.89C154.968 61.8433 155.025 61.82 155.091 61.82H155.811C155.878 61.82 155.931 61.8433 155.971 61.89C156.018 61.93 156.041 61.9833 156.041 62.05V62.77C156.041 62.8367 156.018 62.8933 155.971 62.94C155.931 62.98 155.878 63 155.811 63H155.091ZM159.298 63C159.245 63 159.198 62.98 159.158 62.94C159.118 62.9 159.098 62.8533 159.098 62.8C159.098 62.7667 159.102 62.73 159.108 62.69L161.588 56.22C161.615 56.1533 161.652 56.1 161.698 56.06C161.745 56.02 161.815 56 161.908 56H162.588C162.675 56 162.742 56.02 162.788 56.06C162.842 56.1 162.882 56.1533 162.908 56.22L165.378 62.69C165.392 62.73 165.398 62.7667 165.398 62.8C165.398 62.8533 165.378 62.9 165.338 62.94C165.298 62.98 165.252 63 165.198 63H164.688C164.608 63 164.548 62.98 164.508 62.94C164.475 62.9 164.452 62.8633 164.438 62.83L163.888 61.41H160.608L160.058 62.83C160.052 62.8633 160.028 62.9 159.988 62.94C159.948 62.98 159.888 63 159.808 63H159.298ZM160.898 60.55H163.598L162.248 57L160.898 60.55ZM166.578 63C166.511 63 166.454 62.98 166.408 62.94C166.368 62.8933 166.348 62.8367 166.348 62.77V56.13C166.348 56.0633 166.368 56.01 166.408 55.97C166.454 55.9233 166.511 55.9 166.578 55.9H167.048C167.121 55.9 167.178 55.9233 167.218 55.97C167.258 56.01 167.278 56.0633 167.278 56.13V62.77C167.278 62.8367 167.258 62.8933 167.218 62.94C167.178 62.98 167.121 63 167.048 63H166.578ZM168.999 63C168.933 63 168.876 62.98 168.829 62.94C168.789 62.8933 168.769 62.8367 168.769 62.77V58.03C168.769 57.9633 168.789 57.91 168.829 57.87C168.876 57.8233 168.933 57.8 168.999 57.8H169.479C169.546 57.8 169.599 57.8233 169.639 57.87C169.679 57.91 169.699 57.9633 169.699 58.03V62.77C169.699 62.8367 169.679 62.8933 169.639 62.94C169.599 62.98 169.546 63 169.479 63H168.999ZM168.919 56.83C168.853 56.83 168.796 56.81 168.749 56.77C168.709 56.7233 168.689 56.6667 168.689 56.6V56.06C168.689 55.9933 168.709 55.94 168.749 55.9C168.796 55.8533 168.853 55.83 168.919 55.83H169.549C169.616 55.83 169.669 55.8533 169.709 55.9C169.756 55.94 169.779 55.9933 169.779 56.06V56.6C169.779 56.6667 169.756 56.7233 169.709 56.77C169.669 56.81 169.616 56.83 169.549 56.83H168.919ZM174.951 64.9C174.878 64.9 174.821 64.8767 174.781 64.83C174.741 64.79 174.721 64.7367 174.721 64.67V62.35C174.555 62.5633 174.338 62.7433 174.071 62.89C173.811 63.03 173.488 63.1 173.101 63.1C172.735 63.1 172.418 63.0367 172.151 62.91C171.885 62.7767 171.665 62.6033 171.491 62.39C171.325 62.17 171.198 61.92 171.111 61.64C171.031 61.3533 170.985 61.0533 170.971 60.74C170.965 60.6333 170.961 60.52 170.961 60.4C170.961 60.28 170.965 60.1667 170.971 60.06C170.985 59.74 171.031 59.44 171.111 59.16C171.198 58.88 171.325 58.63 171.491 58.41C171.665 58.19 171.885 58.0167 172.151 57.89C172.418 57.7633 172.735 57.7 173.101 57.7C173.501 57.7 173.835 57.7733 174.101 57.92C174.368 58.0667 174.581 58.25 174.741 58.47V58.03C174.741 57.9633 174.761 57.91 174.801 57.87C174.848 57.8233 174.905 57.8 174.971 57.8H175.431C175.498 57.8 175.551 57.8233 175.591 57.87C175.638 57.91 175.661 57.9633 175.661 58.03V64.67C175.661 64.7367 175.638 64.79 175.591 64.83C175.551 64.8767 175.498 64.9 175.431 64.9H174.951ZM173.311 62.29C173.631 62.29 173.891 62.2167 174.091 62.07C174.298 61.9233 174.451 61.7367 174.551 61.51C174.658 61.2833 174.715 61.0533 174.721 60.82C174.728 60.7067 174.731 60.5767 174.731 60.43C174.731 60.2833 174.728 60.1567 174.721 60.05C174.715 59.8033 174.661 59.5633 174.561 59.33C174.461 59.09 174.308 58.8933 174.101 58.74C173.901 58.5867 173.638 58.51 173.311 58.51C172.971 58.51 172.701 58.5867 172.501 58.74C172.301 58.8867 172.158 59.0833 172.071 59.33C171.985 59.57 171.935 59.83 171.921 60.11C171.915 60.3033 171.915 60.4967 171.921 60.69C171.935 60.97 171.985 61.2333 172.071 61.48C172.158 61.72 172.301 61.9167 172.501 62.07C172.701 62.2167 172.971 62.29 173.311 62.29ZM179.088 63.1C178.662 63.1 178.298 63.0067 177.998 62.82C177.705 62.6267 177.482 62.36 177.328 62.02C177.175 61.68 177.098 61.29 177.098 60.85V58.03C177.098 57.9633 177.118 57.91 177.158 57.87C177.205 57.8233 177.262 57.8 177.328 57.8H177.828C177.895 57.8 177.948 57.8233 177.988 57.87C178.035 57.91 178.058 57.9633 178.058 58.03V60.8C178.058 61.7933 178.492 62.29 179.358 62.29C179.772 62.29 180.102 62.16 180.348 61.9C180.602 61.6333 180.728 61.2667 180.728 60.8V58.03C180.728 57.9633 180.748 57.91 180.788 57.87C180.835 57.8233 180.892 57.8 180.958 57.8H181.448C181.522 57.8 181.578 57.8233 181.618 57.87C181.658 57.91 181.678 57.9633 181.678 58.03V62.77C181.678 62.8367 181.658 62.8933 181.618 62.94C181.578 62.98 181.522 63 181.448 63H180.988C180.922 63 180.865 62.98 180.818 62.94C180.778 62.8933 180.758 62.8367 180.758 62.77V62.33C180.578 62.5633 180.358 62.75 180.098 62.89C179.845 63.03 179.508 63.1 179.088 63.1ZM184.614 63.1C184.28 63.1 183.977 63.0333 183.704 62.9C183.43 62.7667 183.21 62.5867 183.044 62.36C182.877 62.1333 182.794 61.8767 182.794 61.59C182.794 61.13 182.98 60.7633 183.354 60.49C183.727 60.2167 184.214 60.0367 184.814 59.95L186.304 59.74V59.45C186.304 59.13 186.21 58.88 186.024 58.7C185.844 58.52 185.547 58.43 185.134 58.43C184.834 58.43 184.59 58.49 184.404 58.61C184.224 58.73 184.097 58.8833 184.024 59.07C183.984 59.17 183.914 59.22 183.814 59.22H183.364C183.29 59.22 183.234 59.2 183.194 59.16C183.16 59.1133 183.144 59.06 183.144 59C183.144 58.9 183.18 58.7767 183.254 58.63C183.334 58.4833 183.454 58.34 183.614 58.2C183.774 58.06 183.977 57.9433 184.224 57.85C184.477 57.75 184.784 57.7 185.144 57.7C185.544 57.7 185.88 57.7533 186.154 57.86C186.427 57.96 186.64 58.0967 186.794 58.27C186.954 58.4433 187.067 58.64 187.134 58.86C187.207 59.08 187.244 59.3033 187.244 59.53V62.77C187.244 62.8367 187.22 62.8933 187.174 62.94C187.134 62.98 187.08 63 187.014 63H186.554C186.48 63 186.424 62.98 186.384 62.94C186.344 62.8933 186.324 62.8367 186.324 62.77V62.34C186.237 62.46 186.12 62.58 185.974 62.7C185.827 62.8133 185.644 62.91 185.424 62.99C185.204 63.0633 184.934 63.1 184.614 63.1ZM184.824 62.35C185.097 62.35 185.347 62.2933 185.574 62.18C185.8 62.06 185.977 61.8767 186.104 61.63C186.237 61.3833 186.304 61.0733 186.304 60.7V60.42L185.144 60.59C184.67 60.6567 184.314 60.77 184.074 60.93C183.834 61.0833 183.714 61.28 183.714 61.52C183.714 61.7067 183.767 61.8633 183.874 61.99C183.987 62.11 184.127 62.2 184.294 62.26C184.467 62.32 184.644 62.35 184.824 62.35ZM188.911 63C188.845 63 188.788 62.98 188.741 62.94C188.701 62.8933 188.681 62.8367 188.681 62.77V58.03C188.681 57.9633 188.701 57.91 188.741 57.87C188.788 57.8233 188.845 57.8 188.911 57.8H189.361C189.428 57.8 189.481 57.8233 189.521 57.87C189.568 57.91 189.591 57.9633 189.591 58.03V58.38C189.745 58.1733 189.938 58.01 190.171 57.89C190.405 57.7633 190.685 57.7 191.011 57.7C191.765 57.6933 192.298 58 192.611 58.62C192.765 58.34 192.988 58.1167 193.281 57.95C193.575 57.7833 193.908 57.7 194.281 57.7C194.628 57.7 194.941 57.78 195.221 57.94C195.508 58.1 195.731 58.3433 195.891 58.67C196.058 58.99 196.141 59.3933 196.141 59.88V62.77C196.141 62.8367 196.118 62.8933 196.071 62.94C196.031 62.98 195.978 63 195.911 63H195.441C195.375 63 195.318 62.98 195.271 62.94C195.231 62.8933 195.211 62.8367 195.211 62.77V59.97C195.211 59.5967 195.158 59.3033 195.051 59.09C194.945 58.8767 194.801 58.7267 194.621 58.64C194.441 58.5533 194.245 58.51 194.031 58.51C193.858 58.51 193.681 58.5533 193.501 58.64C193.321 58.7267 193.171 58.8767 193.051 59.09C192.938 59.3033 192.881 59.5967 192.881 59.97V62.77C192.881 62.8367 192.858 62.8933 192.811 62.94C192.771 62.98 192.718 63 192.651 63H192.181C192.115 63 192.058 62.98 192.011 62.94C191.971 62.8933 191.951 62.8367 191.951 62.77V59.97C191.951 59.5967 191.895 59.3033 191.781 59.09C191.668 58.8767 191.521 58.7267 191.341 58.64C191.161 58.5533 190.971 58.51 190.771 58.51C190.598 58.51 190.421 58.5533 190.241 58.64C190.061 58.7267 189.911 58.8767 189.791 59.09C189.678 59.3033 189.621 59.5933 189.621 59.96V62.77C189.621 62.8367 189.598 62.8933 189.551 62.94C189.511 62.98 189.458 63 189.391 63H188.911Z" fill="#4D4D4D"/>
<rect x="278" y="42" width="49" height="24" rx="12" fill="#FFF2EA"/>
<path d="M291.39 58C291.31 58 291.242 57.972 291.186 57.916C291.13 57.86 291.102 57.792 291.102 57.712V49.9C291.102 49.812 291.13 49.74 291.186 49.684C291.242 49.628 291.31 49.6 291.39 49.6H294.606C295.23 49.6 295.774 49.7 296.238 49.9C296.702 50.092 297.062 50.388 297.318 50.788C297.574 51.18 297.702 51.672 297.702 52.264C297.702 52.864 297.574 53.36 297.318 53.752C297.062 54.136 296.702 54.424 296.238 54.616C295.774 54.808 295.23 54.904 294.606 54.904H292.818V57.712C292.818 57.792 292.79 57.86 292.734 57.916C292.686 57.972 292.618 58 292.53 58H291.39ZM292.794 53.572H294.546C295.01 53.572 295.366 53.464 295.614 53.248C295.862 53.024 295.986 52.696 295.986 52.264C295.986 51.864 295.87 51.544 295.638 51.304C295.406 51.056 295.042 50.932 294.546 50.932H292.794V53.572ZM299.168 58C299.088 58 299.02 57.972 298.964 57.916C298.908 57.86 298.88 57.792 298.88 57.712V49.768C298.88 49.688 298.908 49.62 298.964 49.564C299.02 49.508 299.088 49.48 299.168 49.48H300.164C300.244 49.48 300.312 49.508 300.368 49.564C300.424 49.62 300.452 49.688 300.452 49.768V57.712C300.452 57.792 300.424 57.86 300.368 57.916C300.312 57.972 300.244 58 300.164 58H299.168ZM303.856 58.12C303.44 58.12 303.064 58.04 302.728 57.88C302.392 57.712 302.124 57.492 301.924 57.22C301.732 56.94 301.636 56.628 301.636 56.284C301.636 55.724 301.86 55.28 302.308 54.952C302.764 54.616 303.364 54.392 304.108 54.28L305.752 54.04V53.788C305.752 53.452 305.668 53.192 305.5 53.008C305.332 52.824 305.044 52.732 304.636 52.732C304.348 52.732 304.112 52.792 303.928 52.912C303.752 53.024 303.62 53.176 303.532 53.368C303.468 53.472 303.376 53.524 303.256 53.524H302.308C302.22 53.524 302.152 53.5 302.104 53.452C302.064 53.404 302.044 53.34 302.044 53.26C302.052 53.132 302.104 52.976 302.2 52.792C302.296 52.608 302.448 52.432 302.656 52.264C302.864 52.088 303.132 51.94 303.46 51.82C303.788 51.7 304.184 51.64 304.648 51.64C305.152 51.64 305.576 51.704 305.92 51.832C306.272 51.952 306.552 52.116 306.76 52.324C306.968 52.532 307.12 52.776 307.216 53.056C307.312 53.336 307.36 53.632 307.36 53.944V57.712C307.36 57.792 307.332 57.86 307.276 57.916C307.22 57.972 307.152 58 307.072 58H306.1C306.012 58 305.94 57.972 305.884 57.916C305.836 57.86 305.812 57.792 305.812 57.712V57.244C305.708 57.396 305.568 57.54 305.392 57.676C305.216 57.804 305 57.912 304.744 58C304.496 58.08 304.2 58.12 303.856 58.12ZM304.264 56.98C304.544 56.98 304.796 56.92 305.02 56.8C305.252 56.68 305.432 56.496 305.56 56.248C305.696 55.992 305.764 55.672 305.764 55.288V55.036L304.564 55.228C304.092 55.3 303.74 55.416 303.508 55.576C303.276 55.736 303.16 55.932 303.16 56.164C303.16 56.34 303.212 56.492 303.316 56.62C303.428 56.74 303.568 56.832 303.736 56.896C303.904 56.952 304.08 56.98 304.264 56.98ZM309.863 60.28C309.799 60.28 309.743 60.256 309.695 60.208C309.647 60.16 309.623 60.104 309.623 60.04C309.623 60.008 309.623 59.976 309.623 59.944C309.631 59.92 309.647 59.888 309.671 59.848L310.607 57.628L308.303 52.192C308.271 52.112 308.255 52.056 308.255 52.024C308.263 51.952 308.291 51.892 308.339 51.844C308.387 51.788 308.447 51.76 308.519 51.76H309.491C309.587 51.76 309.659 51.784 309.707 51.832C309.755 51.88 309.791 51.932 309.815 51.988L311.411 55.912L313.055 51.988C313.079 51.924 313.115 51.872 313.163 51.832C313.211 51.784 313.283 51.76 313.379 51.76H314.339C314.403 51.76 314.459 51.784 314.507 51.832C314.563 51.88 314.591 51.936 314.591 52C314.591 52.048 314.575 52.112 314.543 52.192L311.147 60.052C311.115 60.116 311.075 60.168 311.027 60.208C310.979 60.256 310.907 60.28 310.811 60.28H309.863Z" fill="#FF6700"/>
</g>
<g filter="url(#filter0_b_23_10767)">
<mask id="path-9-inside-2_23_10767" fill="white">
<path d="M0 4C0 1.79086 1.79086 0 4 0H338C340.209 0 342 1.79086 342 4V78C342 80.2091 340.209 82 338 82H4.00001C1.79087 82 0 80.2091 0 78V4Z"/>
</mask>
<path d="M0 4C0 1.79086 1.79086 0 4 0H338C340.209 0 342 1.79086 342 4V78C342 80.2091 340.209 82 338 82H4.00001C1.79087 82 0 80.2091 0 78V4Z" fill="black" fill-opacity="0.6"/>
<path d="M4 1H338V-1H4V1ZM341 4V78H343V4H341ZM338 81H4.00001V83H338V81ZM1 78V4H-1V78H1ZM4.00001 81C2.34315 81 1 79.6569 1 78H-1C-1 80.7614 1.23858 83 4.00001 83V81ZM341 78C341 79.6569 339.657 81 338 81V83C340.761 83 343 80.7614 343 78H341ZM338 1C339.657 1 341 2.34315 341 4H343C343 1.23857 340.761 -1 338 -1V1ZM4 -1C1.23858 -1 -1 1.23858 -1 4H1C1 2.34315 2.34315 1 4 1V-1Z" fill="#CCCCCC" mask="url(#path-9-inside-2_23_10767)"/>
</g>
<path fill-rule="evenodd" clip-rule="evenodd" d="M123 56.1136C123 57.4311 121.927 58.5 120.604 58.5H96.6458C95.3231 58.5 94.25 57.4311 94.25 56.1136V41.7955C94.25 40.478 95.3231 39.4091 96.6458 39.4091H97.4444V34.6364C97.4444 28.5213 102.486 23.5 108.625 23.5C114.764 23.5 119.806 28.5213 119.806 34.6364V39.4091H120.604C121.927 39.4091 123 40.478 123 41.7955V56.1136ZM102.236 34.6363V39.4091H115.014V34.6363C115.014 31.1314 112.144 28.2727 108.625 28.2727C105.106 28.2727 102.236 31.1314 102.236 34.6363Z" fill="white"/>
<path d="M140.914 33.14C140.13 33.14 139.453 33 138.884 32.72C138.324 32.44 137.89 32.0153 137.582 31.446C137.283 30.8673 137.134 30.1253 137.134 29.22V23.536C137.134 23.4333 137.162 23.354 137.218 23.298C137.274 23.2327 137.353 23.2 137.456 23.2H138.17C138.273 23.2 138.352 23.2327 138.408 23.298C138.473 23.354 138.506 23.4333 138.506 23.536V29.248C138.506 30.1627 138.721 30.8393 139.15 31.278C139.579 31.7167 140.167 31.936 140.914 31.936C141.651 31.936 142.235 31.7167 142.664 31.278C143.103 30.8393 143.322 30.1627 143.322 29.248V23.536C143.322 23.4333 143.35 23.354 143.406 23.298C143.471 23.2327 143.551 23.2 143.644 23.2H144.372C144.465 23.2 144.54 23.2327 144.596 23.298C144.661 23.354 144.694 23.4333 144.694 23.536V29.22C144.694 30.1253 144.54 30.8673 144.232 31.446C143.933 32.0153 143.504 32.44 142.944 32.72C142.384 33 141.707 33.14 140.914 33.14ZM147.174 33C147.081 33 147.002 32.972 146.936 32.916C146.88 32.8507 146.852 32.7713 146.852 32.678V26.042C146.852 25.9487 146.88 25.874 146.936 25.818C147.002 25.7527 147.081 25.72 147.174 25.72H147.832C147.926 25.72 148 25.7527 148.056 25.818C148.122 25.874 148.154 25.9487 148.154 26.042V26.658C148.397 26.3407 148.7 26.084 149.064 25.888C149.438 25.6827 149.914 25.58 150.492 25.58C151.099 25.58 151.612 25.7153 152.032 25.986C152.462 26.2473 152.784 26.616 152.998 27.092C153.213 27.5587 153.32 28.1047 153.32 28.73V32.678C153.32 32.7713 153.292 32.8507 153.236 32.916C153.18 32.972 153.106 33 153.012 33H152.312C152.219 33 152.14 32.972 152.074 32.916C152.018 32.8507 151.99 32.7713 151.99 32.678V28.8C151.99 28.1467 151.832 27.638 151.514 27.274C151.197 26.9007 150.73 26.714 150.114 26.714C149.536 26.714 149.069 26.9007 148.714 27.274C148.369 27.638 148.196 28.1467 148.196 28.8V32.678C148.196 32.7713 148.164 32.8507 148.098 32.916C148.042 32.972 147.968 33 147.874 33H147.174ZM155.679 33C155.585 33 155.506 32.972 155.441 32.916C155.385 32.8507 155.357 32.7713 155.357 32.678V23.382C155.357 23.2887 155.385 23.214 155.441 23.158C155.506 23.0927 155.585 23.06 155.679 23.06H156.337C156.439 23.06 156.519 23.0927 156.575 23.158C156.631 23.214 156.659 23.2887 156.659 23.382V32.678C156.659 32.7713 156.631 32.8507 156.575 32.916C156.519 32.972 156.439 33 156.337 33H155.679ZM161.729 33.14C161.02 33.14 160.427 33.0047 159.951 32.734C159.475 32.4633 159.111 32.09 158.859 31.614C158.607 31.1287 158.467 30.578 158.439 29.962C158.43 29.8033 158.425 29.6027 158.425 29.36C158.425 29.108 158.43 28.9073 158.439 28.758C158.467 28.1327 158.607 27.582 158.859 27.106C159.12 26.63 159.489 26.2567 159.965 25.986C160.441 25.7153 161.029 25.58 161.729 25.58C162.429 25.58 163.017 25.7153 163.493 25.986C163.969 26.2567 164.333 26.63 164.585 27.106C164.846 27.582 164.991 28.1327 165.019 28.758C165.028 28.9073 165.033 29.108 165.033 29.36C165.033 29.6027 165.028 29.8033 165.019 29.962C164.991 30.578 164.851 31.1287 164.599 31.614C164.347 32.09 163.983 32.4633 163.507 32.734C163.031 33.0047 162.438 33.14 161.729 33.14ZM161.729 32.062C162.308 32.062 162.77 31.88 163.115 31.516C163.46 31.1427 163.647 30.6013 163.675 29.892C163.684 29.752 163.689 29.5747 163.689 29.36C163.689 29.1453 163.684 28.968 163.675 28.828C163.647 28.1187 163.46 27.582 163.115 27.218C162.77 26.8447 162.308 26.658 161.729 26.658C161.15 26.658 160.684 26.8447 160.329 27.218C159.984 27.582 159.802 28.1187 159.783 28.828C159.774 28.968 159.769 29.1453 159.769 29.36C159.769 29.5747 159.774 29.752 159.783 29.892C159.802 30.6013 159.984 31.1427 160.329 31.516C160.684 31.88 161.15 32.062 161.729 32.062ZM169.726 33.14C169.063 33.14 168.489 33.014 168.004 32.762C167.528 32.5007 167.159 32.132 166.898 31.656C166.637 31.1707 166.497 30.592 166.478 29.92C166.469 29.78 166.464 29.5933 166.464 29.36C166.464 29.1267 166.469 28.94 166.478 28.8C166.497 28.128 166.637 27.554 166.898 27.078C167.159 26.5927 167.528 26.224 168.004 25.972C168.489 25.7107 169.063 25.58 169.726 25.58C170.267 25.58 170.729 25.6547 171.112 25.804C171.504 25.9533 171.826 26.1447 172.078 26.378C172.33 26.6113 172.517 26.8633 172.638 27.134C172.769 27.4047 172.839 27.6613 172.848 27.904C172.857 27.9973 172.829 28.072 172.764 28.128C172.699 28.184 172.619 28.212 172.526 28.212H171.854C171.761 28.212 171.691 28.1933 171.644 28.156C171.597 28.1093 171.551 28.0347 171.504 27.932C171.336 27.4747 171.107 27.1527 170.818 26.966C170.529 26.7793 170.169 26.686 169.74 26.686C169.18 26.686 168.723 26.8587 168.368 27.204C168.023 27.5493 167.836 28.1047 167.808 28.87C167.799 29.206 167.799 29.5327 167.808 29.85C167.836 30.6247 168.023 31.1847 168.368 31.53C168.723 31.866 169.18 32.034 169.74 32.034C170.169 32.034 170.529 31.9407 170.818 31.754C171.107 31.5673 171.336 31.2453 171.504 30.788C171.551 30.6853 171.597 30.6153 171.644 30.578C171.691 30.5313 171.761 30.508 171.854 30.508H172.526C172.619 30.508 172.699 30.536 172.764 30.592C172.829 30.648 172.857 30.7227 172.848 30.816C172.839 31.012 172.797 31.2127 172.722 31.418C172.647 31.6233 172.526 31.8333 172.358 32.048C172.199 32.2533 171.999 32.44 171.756 32.608C171.513 32.7667 171.219 32.8973 170.874 33C170.538 33.0933 170.155 33.14 169.726 33.14ZM174.847 33C174.753 33 174.674 32.972 174.609 32.916C174.553 32.8507 174.525 32.7713 174.525 32.678V23.382C174.525 23.2887 174.553 23.214 174.609 23.158C174.674 23.0927 174.753 23.06 174.847 23.06H175.505C175.598 23.06 175.673 23.0927 175.729 23.158C175.794 23.214 175.827 23.2887 175.827 23.382V28.254L178.585 25.958C178.697 25.8647 178.781 25.804 178.837 25.776C178.902 25.7387 179.005 25.72 179.145 25.72H179.887C179.971 25.72 180.041 25.748 180.097 25.804C180.153 25.86 180.181 25.93 180.181 26.014C180.181 26.0513 180.167 26.0933 180.139 26.14C180.12 26.1867 180.078 26.2333 180.013 26.28L176.779 28.968L180.363 32.454C180.475 32.5473 180.531 32.6313 180.531 32.706C180.531 32.79 180.503 32.86 180.447 32.916C180.391 32.972 180.321 33 180.237 33H179.509C179.369 33 179.266 32.986 179.201 32.958C179.135 32.9207 179.051 32.8553 178.949 32.762L175.827 29.78V32.678C175.827 32.7713 175.794 32.8507 175.729 32.916C175.673 32.972 175.598 33 175.505 33H174.847ZM185.528 33C185.426 33 185.346 32.972 185.29 32.916C185.234 32.8507 185.206 32.7713 185.206 32.678V23.522C185.206 23.4287 185.234 23.354 185.29 23.298C185.346 23.2327 185.426 23.2 185.528 23.2H186.27C186.364 23.2 186.438 23.2327 186.494 23.298C186.56 23.354 186.592 23.4287 186.592 23.522V32.678C186.592 32.7713 186.56 32.8507 186.494 32.916C186.438 32.972 186.364 33 186.27 33H185.528ZM189.174 33C189.081 33 189.002 32.972 188.936 32.916C188.88 32.8507 188.852 32.7713 188.852 32.678V26.042C188.852 25.9487 188.88 25.874 188.936 25.818C189.002 25.7527 189.081 25.72 189.174 25.72H189.832C189.926 25.72 190 25.7527 190.056 25.818C190.122 25.874 190.154 25.9487 190.154 26.042V26.658C190.397 26.3407 190.7 26.084 191.064 25.888C191.438 25.6827 191.914 25.58 192.492 25.58C193.099 25.58 193.612 25.7153 194.032 25.986C194.462 26.2473 194.784 26.616 194.998 27.092C195.213 27.5587 195.32 28.1047 195.32 28.73V32.678C195.32 32.7713 195.292 32.8507 195.236 32.916C195.18 32.972 195.106 33 195.012 33H194.312C194.219 33 194.14 32.972 194.074 32.916C194.018 32.8507 193.99 32.7713 193.99 32.678V28.8C193.99 28.1467 193.832 27.638 193.514 27.274C193.197 26.9007 192.73 26.714 192.114 26.714C191.536 26.714 191.069 26.9007 190.714 27.274C190.369 27.638 190.196 28.1467 190.196 28.8V32.678C190.196 32.7713 190.164 32.8507 190.098 32.916C190.042 32.972 189.968 33 189.874 33H189.174Z" fill="white"/>
<path d="M137.242 58C137.122 58 137.02 57.958 136.936 57.874C136.852 57.79 136.81 57.688 136.81 57.568V56.65C136.81 56.542 136.834 56.416 136.882 56.272C136.942 56.116 137.068 55.96 137.26 55.804L140.104 52.978C140.896 52.354 141.532 51.826 142.012 51.394C142.504 50.95 142.858 50.548 143.074 50.188C143.302 49.816 143.416 49.45 143.416 49.09C143.416 48.55 143.266 48.112 142.966 47.776C142.678 47.44 142.216 47.272 141.58 47.272C141.16 47.272 140.806 47.362 140.518 47.542C140.23 47.71 140.002 47.938 139.834 48.226C139.678 48.514 139.57 48.832 139.51 49.18C139.486 49.336 139.42 49.444 139.312 49.504C139.204 49.564 139.096 49.594 138.988 49.594H137.386C137.278 49.594 137.188 49.558 137.116 49.486C137.044 49.414 137.008 49.33 137.008 49.234C137.02 48.718 137.128 48.22 137.332 47.74C137.536 47.248 137.83 46.816 138.214 46.444C138.61 46.06 139.09 45.754 139.654 45.526C140.218 45.298 140.854 45.184 141.562 45.184C142.558 45.184 143.38 45.352 144.028 45.688C144.688 46.024 145.18 46.48 145.504 47.056C145.84 47.632 146.008 48.28 146.008 49C146.008 49.564 145.9 50.086 145.684 50.566C145.468 51.034 145.156 51.49 144.748 51.934C144.34 52.366 143.848 52.81 143.272 53.266L140.716 55.858H145.846C145.978 55.858 146.08 55.9 146.152 55.984C146.236 56.056 146.278 56.158 146.278 56.29V57.568C146.278 57.688 146.236 57.79 146.152 57.874C146.08 57.958 145.978 58 145.846 58H137.242ZM154.131 58C154.011 58 153.909 57.958 153.825 57.874C153.741 57.79 153.699 57.688 153.699 57.568V55.264H147.993C147.861 55.264 147.753 55.222 147.669 55.138C147.597 55.054 147.561 54.952 147.561 54.832V53.608C147.561 53.536 147.573 53.452 147.597 53.356C147.633 53.248 147.687 53.152 147.759 53.068L153.069 45.706C153.225 45.502 153.447 45.4 153.735 45.4H155.697C155.817 45.4 155.919 45.442 156.003 45.526C156.087 45.61 156.129 45.712 156.129 45.832V53.14H157.731C157.875 53.14 157.983 53.182 158.055 53.266C158.139 53.338 158.181 53.44 158.181 53.572V54.832C158.181 54.952 158.139 55.054 158.055 55.138C157.971 55.222 157.869 55.264 157.749 55.264H156.129V57.568C156.129 57.688 156.087 57.79 156.003 57.874C155.919 57.958 155.817 58 155.697 58H154.131ZM150.063 53.212H153.753V48.01L150.063 53.212ZM160.33 51.7C160.21 51.7 160.108 51.658 160.024 51.574C159.94 51.49 159.898 51.388 159.898 51.268V49.558C159.898 49.426 159.94 49.318 160.024 49.234C160.108 49.15 160.21 49.108 160.33 49.108H162.112C162.244 49.108 162.352 49.15 162.436 49.234C162.52 49.318 162.562 49.426 162.562 49.558V51.268C162.562 51.388 162.52 51.49 162.436 51.574C162.352 51.658 162.244 51.7 162.112 51.7H160.33ZM160.33 58C160.21 58 160.108 57.958 160.024 57.874C159.94 57.79 159.898 57.688 159.898 57.568V55.858C159.898 55.726 159.94 55.618 160.024 55.534C160.108 55.45 160.21 55.408 160.33 55.408H162.112C162.244 55.408 162.352 55.45 162.436 55.534C162.52 55.618 162.562 55.726 162.562 55.858V57.568C162.562 57.688 162.52 57.79 162.436 57.874C162.352 57.958 162.244 58 162.112 58H160.33ZM169.211 58.198C168.179 58.198 167.309 58.03 166.601 57.694C165.893 57.346 165.353 56.896 164.981 56.344C164.621 55.792 164.429 55.204 164.405 54.58C164.393 54.472 164.423 54.388 164.495 54.328C164.579 54.256 164.675 54.22 164.783 54.22H166.457C166.589 54.22 166.697 54.25 166.781 54.31C166.877 54.358 166.949 54.448 166.997 54.58C167.117 54.94 167.285 55.234 167.501 55.462C167.729 55.69 167.987 55.858 168.275 55.966C168.575 56.074 168.887 56.128 169.211 56.128C169.643 56.128 170.033 56.044 170.381 55.876C170.741 55.696 171.029 55.432 171.245 55.084C171.461 54.736 171.569 54.31 171.569 53.806C171.569 53.362 171.467 52.978 171.263 52.654C171.059 52.33 170.777 52.078 170.417 51.898C170.069 51.706 169.667 51.61 169.211 51.61C168.875 51.61 168.599 51.652 168.383 51.736C168.167 51.82 167.981 51.916 167.825 52.024C167.681 52.132 167.549 52.228 167.429 52.312C167.321 52.396 167.195 52.438 167.051 52.438H165.395C165.287 52.438 165.191 52.402 165.107 52.33C165.035 52.246 164.999 52.15 164.999 52.042L165.629 45.886C165.641 45.73 165.695 45.61 165.791 45.526C165.887 45.442 166.001 45.4 166.133 45.4H172.901C173.021 45.4 173.123 45.442 173.207 45.526C173.291 45.61 173.333 45.712 173.333 45.832V47.038C173.333 47.158 173.291 47.26 173.207 47.344C173.123 47.428 173.021 47.47 172.901 47.47H167.699L167.411 50.404C167.627 50.26 167.915 50.122 168.275 49.99C168.635 49.858 169.133 49.792 169.769 49.792C170.345 49.792 170.891 49.888 171.407 50.08C171.935 50.26 172.403 50.53 172.811 50.89C173.219 51.238 173.537 51.664 173.765 52.168C174.005 52.66 174.125 53.224 174.125 53.86C174.125 54.736 173.921 55.498 173.513 56.146C173.105 56.794 172.535 57.298 171.803 57.658C171.071 58.018 170.207 58.198 169.211 58.198ZM181.975 58C181.855 58 181.753 57.958 181.669 57.874C181.585 57.79 181.543 57.688 181.543 57.568V55.264H175.837C175.705 55.264 175.597 55.222 175.513 55.138C175.441 55.054 175.405 54.952 175.405 54.832V53.608C175.405 53.536 175.417 53.452 175.441 53.356C175.477 53.248 175.531 53.152 175.603 53.068L180.913 45.706C181.069 45.502 181.291 45.4 181.579 45.4H183.541C183.661 45.4 183.763 45.442 183.847 45.526C183.931 45.61 183.973 45.712 183.973 45.832V53.14H185.575C185.719 53.14 185.827 53.182 185.899 53.266C185.983 53.338 186.025 53.44 186.025 53.572V54.832C186.025 54.952 185.983 55.054 185.899 55.138C185.815 55.222 185.713 55.264 185.593 55.264H183.973V57.568C183.973 57.688 183.931 57.79 183.847 57.874C183.763 57.958 183.661 58 183.541 58H181.975ZM177.907 53.212H181.597V48.01L177.907 53.212ZM188.173 51.7C188.053 51.7 187.951 51.658 187.867 51.574C187.783 51.49 187.741 51.388 187.741 51.268V49.558C187.741 49.426 187.783 49.318 187.867 49.234C187.951 49.15 188.053 49.108 188.173 49.108H189.955C190.087 49.108 190.195 49.15 190.279 49.234C190.363 49.318 190.405 49.426 190.405 49.558V51.268C190.405 51.388 190.363 51.49 190.279 51.574C190.195 51.658 190.087 51.7 189.955 51.7H188.173ZM188.173 58C188.053 58 187.951 57.958 187.867 57.874C187.783 57.79 187.741 57.688 187.741 57.568V55.858C187.741 55.726 187.783 55.618 187.867 55.534C187.951 55.45 188.053 55.408 188.173 55.408H189.955C190.087 55.408 190.195 55.45 190.279 55.534C190.363 55.618 190.405 55.726 190.405 55.858V57.568C190.405 57.688 190.363 57.79 190.279 57.874C190.195 57.958 190.087 58 189.955 58H188.173ZM197.451 58.18C196.599 58.18 195.873 58.054 195.273 57.802C194.673 57.55 194.181 57.202 193.797 56.758C193.413 56.314 193.125 55.804 192.933 55.228C192.741 54.64 192.627 54.016 192.591 53.356C192.579 53.032 192.567 52.678 192.555 52.294C192.555 51.898 192.555 51.502 192.555 51.106C192.567 50.71 192.579 50.344 192.591 50.008C192.615 49.348 192.729 48.73 192.933 48.154C193.137 47.566 193.431 47.056 193.815 46.624C194.211 46.192 194.709 45.85 195.309 45.598C195.909 45.346 196.623 45.22 197.451 45.22C198.291 45.22 199.011 45.346 199.611 45.598C200.211 45.85 200.703 46.192 201.087 46.624C201.483 47.056 201.777 47.566 201.969 48.154C202.173 48.73 202.287 49.348 202.311 50.008C202.335 50.344 202.347 50.71 202.347 51.106C202.347 51.502 202.347 51.898 202.347 52.294C202.347 52.678 202.335 53.032 202.311 53.356C202.287 54.016 202.179 54.64 201.987 55.228C201.795 55.804 201.507 56.314 201.123 56.758C200.739 57.202 200.241 57.55 199.629 57.802C199.029 58.054 198.303 58.18 197.451 58.18ZM197.451 56.11C198.231 56.11 198.801 55.858 199.161 55.354C199.533 54.838 199.725 54.142 199.737 53.266C199.761 52.918 199.773 52.57 199.773 52.222C199.773 51.862 199.773 51.502 199.773 51.142C199.773 50.782 199.761 50.44 199.737 50.116C199.725 49.264 199.533 48.58 199.161 48.064C198.801 47.536 198.231 47.272 197.451 47.272C196.683 47.272 196.113 47.536 195.741 48.064C195.381 48.58 195.189 49.264 195.165 50.116C195.165 50.44 195.159 50.782 195.147 51.142C195.147 51.502 195.147 51.862 195.147 52.222C195.159 52.57 195.165 52.918 195.165 53.266C195.189 54.142 195.387 54.838 195.759 55.354C196.131 55.858 196.695 56.11 197.451 56.11ZM209.119 58.18C208.087 58.18 207.199 57.988 206.455 57.604C205.711 57.208 205.135 56.68 204.727 56.02C204.319 55.348 204.115 54.598 204.115 53.77C204.115 53.398 204.163 53.038 204.259 52.69C204.355 52.342 204.481 52.012 204.637 51.7C204.793 51.388 204.943 51.112 205.087 50.872C205.243 50.62 205.381 50.422 205.501 50.278L208.795 45.76C208.843 45.7 208.915 45.628 209.011 45.544C209.107 45.448 209.239 45.4 209.407 45.4H211.081C211.189 45.4 211.279 45.442 211.351 45.526C211.423 45.598 211.459 45.688 211.459 45.796C211.459 45.844 211.447 45.892 211.423 45.94C211.411 45.976 211.393 46.006 211.369 46.03L208.849 49.522C208.957 49.486 209.083 49.462 209.227 49.45C209.371 49.438 209.503 49.432 209.623 49.432C210.223 49.444 210.793 49.564 211.333 49.792C211.873 50.008 212.347 50.308 212.755 50.692C213.163 51.076 213.481 51.526 213.709 52.042C213.949 52.558 214.069 53.122 214.069 53.734C214.069 54.526 213.871 55.264 213.475 55.948C213.079 56.62 212.509 57.16 211.765 57.568C211.033 57.976 210.151 58.18 209.119 58.18ZM209.101 56.11C209.533 56.11 209.929 56.02 210.289 55.84C210.661 55.66 210.961 55.396 211.189 55.048C211.417 54.7 211.531 54.268 211.531 53.752C211.531 53.248 211.417 52.822 211.189 52.474C210.961 52.126 210.661 51.862 210.289 51.682C209.929 51.502 209.533 51.412 209.101 51.412C208.669 51.412 208.267 51.502 207.895 51.682C207.535 51.862 207.241 52.126 207.013 52.474C206.785 52.822 206.671 53.248 206.671 53.752C206.671 54.268 206.785 54.7 207.013 55.048C207.241 55.396 207.535 55.66 207.895 55.84C208.267 56.02 208.669 56.11 209.101 56.11ZM220.611 58C220.491 58 220.389 57.964 220.305 57.892C220.221 57.808 220.179 57.7 220.179 57.568V45.85C220.179 45.718 220.221 45.61 220.305 45.526C220.389 45.442 220.491 45.4 220.611 45.4H222.249C222.381 45.4 222.483 45.442 222.555 45.526C222.639 45.61 222.681 45.718 222.681 45.85V50.494H227.991V45.85C227.991 45.718 228.033 45.61 228.117 45.526C228.201 45.442 228.303 45.4 228.423 45.4H230.043C230.175 45.4 230.283 45.442 230.367 45.526C230.451 45.61 230.493 45.718 230.493 45.85V57.568C230.493 57.688 230.451 57.79 230.367 57.874C230.283 57.958 230.175 58 230.043 58H228.423C228.303 58 228.201 57.958 228.117 57.874C228.033 57.79 227.991 57.688 227.991 57.568V52.744H222.681V57.568C222.681 57.688 222.639 57.79 222.555 57.874C222.483 57.958 222.381 58 222.249 58H220.611ZM233.725 58C233.605 58 233.503 57.958 233.419 57.874C233.335 57.79 233.293 57.688 233.293 57.568V45.85C233.293 45.718 233.335 45.61 233.419 45.526C233.503 45.442 233.605 45.4 233.725 45.4H238.387C239.839 45.4 240.985 45.736 241.825 46.408C242.665 47.08 243.085 48.058 243.085 49.342C243.085 50.23 242.863 50.968 242.419 51.556C241.987 52.144 241.405 52.57 240.673 52.834L243.301 57.424C243.337 57.496 243.355 57.562 243.355 57.622C243.355 57.73 243.313 57.82 243.229 57.892C243.157 57.964 243.073 58 242.977 58H241.339C241.135 58 240.979 57.946 240.871 57.838C240.763 57.73 240.679 57.622 240.619 57.514L238.297 53.248H235.795V57.568C235.795 57.688 235.753 57.79 235.669 57.874C235.597 57.958 235.495 58 235.363 58H233.725ZM235.795 51.214H238.333C239.065 51.214 239.611 51.052 239.971 50.728C240.331 50.392 240.511 49.924 240.511 49.324C240.511 48.724 240.331 48.256 239.971 47.92C239.623 47.572 239.077 47.398 238.333 47.398H235.795V51.214ZM249.778 58.18C248.662 58.18 247.726 58.018 246.97 57.694C246.226 57.358 245.656 56.926 245.26 56.398C244.876 55.858 244.672 55.294 244.648 54.706C244.648 54.598 244.684 54.508 244.756 54.436C244.828 54.364 244.918 54.328 245.026 54.328H246.628C246.784 54.328 246.898 54.364 246.97 54.436C247.054 54.496 247.126 54.574 247.186 54.67C247.258 54.898 247.396 55.126 247.6 55.354C247.804 55.57 248.08 55.75 248.428 55.894C248.788 56.038 249.238 56.11 249.778 56.11C250.642 56.11 251.284 55.966 251.704 55.678C252.136 55.39 252.352 55 252.352 54.508C252.352 54.16 252.238 53.884 252.01 53.68C251.782 53.464 251.428 53.272 250.948 53.104C250.48 52.924 249.856 52.738 249.076 52.546C248.176 52.33 247.42 52.072 246.808 51.772C246.208 51.46 245.752 51.07 245.44 50.602C245.14 50.134 244.99 49.54 244.99 48.82C244.99 48.124 245.176 47.506 245.548 46.966C245.932 46.426 246.472 46 247.168 45.688C247.876 45.376 248.716 45.22 249.688 45.22C250.468 45.22 251.158 45.328 251.758 45.544C252.358 45.748 252.856 46.024 253.252 46.372C253.648 46.708 253.948 47.074 254.152 47.47C254.368 47.854 254.482 48.232 254.494 48.604C254.494 48.7 254.458 48.79 254.386 48.874C254.326 48.946 254.236 48.982 254.116 48.982H252.442C252.346 48.982 252.25 48.958 252.154 48.91C252.058 48.862 251.98 48.772 251.92 48.64C251.848 48.268 251.614 47.95 251.218 47.686C250.822 47.422 250.312 47.29 249.688 47.29C249.04 47.29 248.518 47.41 248.122 47.65C247.726 47.89 247.528 48.262 247.528 48.766C247.528 49.102 247.624 49.384 247.816 49.612C248.02 49.828 248.338 50.02 248.77 50.188C249.214 50.356 249.796 50.536 250.516 50.728C251.536 50.956 252.37 51.22 253.018 51.52C253.666 51.82 254.14 52.204 254.44 52.672C254.74 53.128 254.89 53.71 254.89 54.418C254.89 55.21 254.674 55.888 254.242 56.452C253.822 57.004 253.228 57.43 252.46 57.73C251.692 58.03 250.798 58.18 249.778 58.18Z" fill="white"/>
<defs>
<filter id="filter0_b_23_10767" x="-10" y="-10" width="362" height="102" filterUnits="userSpaceOnUse" color-interpolation-filters="sRGB">
<feFlood flood-opacity="0" result="BackgroundImageFix"/>
<feGaussianBlur in="BackgroundImageFix" stdDeviation="5"/>
<feComposite in2="SourceAlpha" operator="in" result="effect1_backgroundBlur_23_10767"/>
<feBlend mode="normal" in="SourceGraphic" in2="effect1_backgroundBlur_23_10767" result="shape"/>
</filter>
<clipPath id="clip0_23_10767">
<rect width="343" height="82" fill="white"/>
</clipPath>
</defs>
</svg>
