<svg width="40" height="40" viewBox="0 0 40 40" fill="none" xmlns="http://www.w3.org/2000/svg">
<path fill-rule="evenodd" clip-rule="evenodd" d="M35 35.1136C35 36.4311 33.9269 37.5 32.6042 37.5H8.64583C7.32313 37.5 6.25 36.4311 6.25 35.1136V20.7955C6.25 19.478 7.32313 18.4091 8.64583 18.4091H9.44444V13.6364C9.44444 7.52131 14.4857 2.5 20.625 2.5C26.7643 2.5 31.8056 7.52131 31.8056 13.6364V18.4091H32.6042C33.9269 18.4091 35 19.478 35 20.7955V35.1136ZM14.2361 13.6363V18.4091H27.0139V13.6363C27.0139 10.1314 24.1439 7.2727 20.625 7.2727C17.1061 7.2727 14.2361 10.1314 14.2361 13.6363Z" fill="white"/>
</svg>
