<svg width="24" height="24" viewBox="0 0 24 24" fill="none" xmlns="http://www.w3.org/2000/svg">
<path fill-rule="evenodd" clip-rule="evenodd" d="M12 0C5.37258 0 0 5.37258 0 12C0 18.6274 5.37258 24 12 24C18.6274 24 24 18.6274 24 12C23.9912 5.37624 18.6238 0.00881407 12 0ZM18.2187 11.8L15.9493 13.8187L16.5973 16.8C16.7113 17.3175 16.5081 17.8534 16.0795 18.1651C15.651 18.4768 15.0786 18.5052 14.6213 18.2373L12 16.688L9.376 18.224C8.92104 18.4888 8.3529 18.4611 7.92585 18.1533C7.49879 17.8456 7.29278 17.3154 7.4 16.8L8.05067 13.832L5.78133 11.8133C5.38416 11.4617 5.23323 10.908 5.39699 10.4035C5.56074 9.8989 6.00802 9.5394 6.536 9.488L9.56 9.18933L10.7787 6.4C10.9911 5.91494 11.4705 5.60157 12 5.60157C12.5295 5.60157 13.0089 5.91494 13.2213 6.4L14.44 9.184L17.464 9.48267C17.992 9.53407 18.4393 9.89357 18.603 10.3981C18.7668 10.9027 18.6158 11.4563 18.2187 11.808V11.8ZM12.0015 10.25L12.3135 10.9593C12.5079 11.4027 12.9274 11.7059 13.4095 11.7513L14.1828 11.8287L13.6015 12.3433C13.235 12.6606 13.0696 13.1517 13.1695 13.626L13.3348 14.3833L12.6868 13.9913C12.2702 13.7469 11.754 13.7469 11.3375 13.9913L10.6681 14.3833L10.8201 13.626C10.9232 13.1542 10.763 12.6635 10.4015 12.3433L9.82812 11.8367L10.6015 11.7593C11.0823 11.7096 11.4986 11.4035 11.6895 10.9593L12.0015 10.25Z" fill="#8800A6"/>
<mask id="mask0_23_10883" style="mask-type:luminance" maskUnits="userSpaceOnUse" x="0" y="0" width="24" height="24">
<path fill-rule="evenodd" clip-rule="evenodd" d="M12 0C5.37258 0 0 5.37258 0 12C0 18.6274 5.37258 24 12 24C18.6274 24 24 18.6274 24 12C23.9912 5.37624 18.6238 0.00881407 12 0ZM18.2187 11.8L15.9493 13.8187L16.5973 16.8C16.7113 17.3175 16.5081 17.8534 16.0795 18.1651C15.651 18.4768 15.0786 18.5052 14.6213 18.2373L12 16.688L9.376 18.224C8.92104 18.4888 8.3529 18.4611 7.92585 18.1533C7.49879 17.8456 7.29278 17.3154 7.4 16.8L8.05067 13.832L5.78133 11.8133C5.38416 11.4617 5.23323 10.908 5.39699 10.4035C5.56074 9.8989 6.00802 9.5394 6.536 9.488L9.56 9.18933L10.7787 6.4C10.9911 5.91494 11.4705 5.60157 12 5.60157C12.5295 5.60157 13.0089 5.91494 13.2213 6.4L14.44 9.184L17.464 9.48267C17.992 9.53407 18.4393 9.89357 18.603 10.3981C18.7668 10.9027 18.6158 11.4563 18.2187 11.808V11.8ZM12.0015 10.25L12.3135 10.9593C12.5079 11.4027 12.9274 11.7059 13.4095 11.7513L14.1828 11.8287L13.6015 12.3433C13.235 12.6606 13.0696 13.1517 13.1695 13.626L13.3348 14.3833L12.6868 13.9913C12.2702 13.7469 11.754 13.7469 11.3375 13.9913L10.6681 14.3833L10.8201 13.626C10.9232 13.1542 10.763 12.6635 10.4015 12.3433L9.82812 11.8367L10.6015 11.7593C11.0823 11.7096 11.4986 11.4035 11.6895 10.9593L12.0015 10.25Z" fill="white"/>
</mask>
<g mask="url(#mask0_23_10883)">
<path fill-rule="evenodd" clip-rule="evenodd" d="M33.8135 48.1879C33.8135 48.1879 32.2427 56.1762 23.892 48.2329C15.5414 40.2897 7.71551 47.5531 3.4441 43.8771C-0.827307 40.2011 -3.91224 29.7194 2.10124 23.8284C8.11472 17.9373 11.0799 13.017 19.5603 17.4068C28.0407 21.7966 38.7773 11.8833 38.8891 22.0528C39.001 32.2222 33.8135 48.1879 33.8135 48.1879Z" fill="#AD1FCC"/>
<path fill-rule="evenodd" clip-rule="evenodd" d="M33.8135 8.18787C33.8135 8.18787 32.2427 16.1762 23.892 8.23294C15.5414 0.289656 7.71551 7.55311 3.4441 3.87712C-0.827307 0.201141 -3.91224 -10.2806 2.10124 -16.1716C8.11472 -22.0627 11.0799 -26.983 19.5603 -22.5932C28.0407 -18.2034 38.7773 -28.1167 38.8891 -17.9472C39.001 -7.77779 33.8135 8.18787 33.8135 8.18787Z" fill="#AD1FCC"/>
</g>
</svg>
