<svg width="49" height="48" viewBox="0 0 49 48" fill="none" xmlns="http://www.w3.org/2000/svg">
<rect x="0.5" width="48" height="48" rx="24" fill="#CCCCCC"/>
<path fill-rule="evenodd" clip-rule="evenodd" d="M32.2083 16.8571H16.7917C15.5275 16.8571 14.5 17.8847 14.5 19.1489V29.5654C14.5 30.8296 15.5275 31.8571 16.7917 31.8571H32.2083C33.4725 31.8571 34.5 30.8296 34.5 29.5654V19.1489C34.5 17.8847 33.4725 16.8571 32.2083 16.8571ZM20.7499 20.1904C21.8983 20.1904 22.8332 21.1255 22.8332 22.2739C22.8332 23.4221 21.8983 24.3572 20.7499 24.3572C19.6016 24.3572 18.6667 23.4221 18.6667 22.2739C18.6667 21.1255 19.6016 20.1904 20.7499 20.1904ZM24.5 27.8989C24.5 28.2439 24.22 28.5239 23.875 28.5239H17.625C17.28 28.5239 17 28.2439 17 27.8989V27.4822C17 26.218 18.0275 25.1904 19.2917 25.1904H22.2083C23.4725 25.1904 24.5 26.218 24.5 27.4822V27.8989ZM31.375 28.5239H26.7917C26.4467 28.5239 26.1667 28.2439 26.1667 27.8989C26.1667 27.5539 26.4467 27.2739 26.7917 27.2739H31.375C31.72 27.2739 32 27.5539 32 27.8989C32 28.2439 31.72 28.5239 31.375 28.5239ZM31.375 25.1904H26.7917C26.4467 25.1904 26.1667 24.9104 26.1667 24.5654C26.1667 24.2204 26.4467 23.9404 26.7917 23.9404H31.375C31.72 23.9404 32 24.2204 32 24.5654C32 24.9104 31.72 25.1904 31.375 25.1904ZM31.375 21.8571H26.7917C26.4467 21.8571 26.1667 21.5771 26.1667 21.2321C26.1667 20.8871 26.4467 20.6071 26.7917 20.6071H31.375C31.72 20.6071 32 20.8871 32 21.2321C32 21.5771 31.72 21.8571 31.375 21.8571Z" fill="#999999"/>
<mask id="mask0_23_10583" style="mask-type:luminance" maskUnits="userSpaceOnUse" x="14" y="16" width="21" height="16">
<path fill-rule="evenodd" clip-rule="evenodd" d="M32.2083 16.8571H16.7917C15.5275 16.8571 14.5 17.8847 14.5 19.1489V29.5654C14.5 30.8296 15.5275 31.8571 16.7917 31.8571H32.2083C33.4725 31.8571 34.5 30.8296 34.5 29.5654V19.1489C34.5 17.8847 33.4725 16.8571 32.2083 16.8571ZM20.7499 20.1904C21.8983 20.1904 22.8332 21.1255 22.8332 22.2739C22.8332 23.4221 21.8983 24.3572 20.7499 24.3572C19.6016 24.3572 18.6667 23.4221 18.6667 22.2739C18.6667 21.1255 19.6016 20.1904 20.7499 20.1904ZM24.5 27.8989C24.5 28.2439 24.22 28.5239 23.875 28.5239H17.625C17.28 28.5239 17 28.2439 17 27.8989V27.4822C17 26.218 18.0275 25.1904 19.2917 25.1904H22.2083C23.4725 25.1904 24.5 26.218 24.5 27.4822V27.8989ZM31.375 28.5239H26.7917C26.4467 28.5239 26.1667 28.2439 26.1667 27.8989C26.1667 27.5539 26.4467 27.2739 26.7917 27.2739H31.375C31.72 27.2739 32 27.5539 32 27.8989C32 28.2439 31.72 28.5239 31.375 28.5239ZM31.375 25.1904H26.7917C26.4467 25.1904 26.1667 24.9104 26.1667 24.5654C26.1667 24.2204 26.4467 23.9404 26.7917 23.9404H31.375C31.72 23.9404 32 24.2204 32 24.5654C32 24.9104 31.72 25.1904 31.375 25.1904ZM31.375 21.8571H26.7917C26.4467 21.8571 26.1667 21.5771 26.1667 21.2321C26.1667 20.8871 26.4467 20.6071 26.7917 20.6071H31.375C31.72 20.6071 32 20.8871 32 21.2321C32 21.5771 31.72 21.8571 31.375 21.8571Z" fill="white"/>
</mask>
<g mask="url(#mask0_23_10583)">
<path fill-rule="evenodd" clip-rule="evenodd" d="M31.4206 17.7571H17.4206C16.4449 17.7571 15.6539 18.5481 15.6539 19.5238V28.8571C15.6539 29.8328 16.4449 30.6238 17.4206 30.6238H31.4206C32.3963 30.6238 33.1873 29.8328 33.1873 28.8571V19.5238C33.1873 18.5481 32.3963 17.7571 31.4206 17.7571ZM17.4208 18.6238H31.4208C31.9178 18.6238 32.3208 19.0267 32.3208 19.5238V28.8571C32.3208 29.3542 31.9178 29.7571 31.4208 29.7571H17.4208C16.9237 29.7571 16.5208 29.3542 16.5208 28.8571V19.5238C16.5208 19.0267 16.9237 18.6238 17.4208 18.6238Z" fill="#999999"/>
<path fill-rule="evenodd" clip-rule="evenodd" d="M33.7455 42.1793C33.7455 42.1793 33.2459 46.7137 28.3317 42.7178C23.4176 38.7218 19.4709 43.1759 16.9747 41.3477C14.4784 39.5195 12.325 33.836 15.3438 30.2408C18.3625 26.6456 19.7608 23.7493 24.5866 25.7576C29.4125 27.7659 34.8293 21.6841 35.3458 27.3474C35.8623 33.0106 33.7455 42.1793 33.7455 42.1793Z" fill="#999999"/>
</g>
</svg>
