<svg width="49" height="48" viewBox="0 0 49 48" fill="none" xmlns="http://www.w3.org/2000/svg">
<rect x="0.5" width="48" height="48" rx="24" fill="#CCCCCC"/>
<path fill-rule="evenodd" clip-rule="evenodd" d="M26.1645 25.8504C25.7008 25.8504 25.3234 26.2277 25.3234 26.6915C25.3234 27.1553 25.7007 27.5326 26.1645 27.5326C26.6283 27.5326 27.0056 27.1553 27.0056 26.6915C27.0056 26.2277 26.6283 25.8504 26.1645 25.8504ZM31.7321 24.2266C31.6617 24.0826 31.6617 23.9174 31.7321 23.7733L32.3848 22.4381C32.7482 21.6947 32.4603 20.8086 31.7293 20.4208L30.4165 19.7242C30.2749 19.6491 30.1778 19.5154 30.1501 19.3575L29.8933 17.8936C29.7503 17.0786 28.9964 16.5309 28.1772 16.6468L26.7057 16.8549C26.5469 16.8774 26.3898 16.8263 26.2746 16.7148L25.2065 15.6815C24.6117 15.1062 23.68 15.1061 23.0853 15.6815L22.0171 16.7149C21.9019 16.8264 21.7448 16.8774 21.586 16.855L20.1145 16.6469C19.2951 16.5309 18.5414 17.0787 18.3984 17.8937L18.1417 19.3575C18.114 19.5154 18.0169 19.6491 17.8753 19.7243L16.5624 20.4208C15.8315 20.8086 15.5436 21.6948 15.907 22.4382L16.5596 23.7734C16.63 23.9175 16.63 24.0827 16.5596 24.2267L15.9069 25.5619C15.5435 26.3053 15.8314 27.1914 16.5624 27.5792L17.8752 28.2758C18.0169 28.3509 18.114 28.4846 18.1417 28.6425L18.3984 30.1064C18.5286 30.8483 19.1648 31.3687 19.896 31.3686C19.968 31.3686 20.0411 31.3636 20.1145 31.3532L21.5861 31.145C21.7448 31.1225 21.9019 31.1737 22.0172 31.2851L23.0853 32.3184C23.3827 32.6061 23.7642 32.75 24.1459 32.7499C24.5274 32.7499 24.9092 32.6061 25.2065 32.3184L26.2746 31.2851C26.3899 31.1737 26.547 31.1227 26.7057 31.145L28.1772 31.3532C28.9968 31.4691 29.7503 30.9214 29.8933 30.1063L30.1501 28.6426C30.1778 28.4846 30.2749 28.351 30.4165 28.2758L31.7293 27.5792C32.4603 27.1914 32.7482 26.3053 32.3848 25.5618L31.7321 24.2266ZM22.1272 20.4674C21.6634 20.4674 21.2861 20.8447 21.2861 21.3085C21.2861 21.7722 21.6634 22.1496 22.1272 22.1496C22.591 22.1496 22.9683 21.7723 22.9683 21.3085C22.9683 20.8447 22.591 20.4674 22.1272 20.4674ZM22.1273 19.4581C23.1476 19.4581 23.9777 20.2882 23.9777 21.3085C23.9777 22.3288 23.1476 23.1589 22.1273 23.1589C21.107 23.1589 20.2768 22.3288 20.2768 21.3085C20.2768 20.2882 21.107 19.4581 22.1273 19.4581ZM21.1721 27.6874C21.0736 27.7859 20.9444 27.8352 20.8153 27.8352C20.6861 27.8352 20.5569 27.786 20.4584 27.6874C20.2614 27.4903 20.2614 27.1708 20.4584 26.9737L27.1196 20.3125C27.3166 20.1155 27.6362 20.1155 27.8333 20.3125C28.0304 20.5096 28.0304 20.8292 27.8333 21.0262L21.1721 27.6874ZM26.1644 28.5419C25.1441 28.5419 24.314 27.7118 24.314 26.6915C24.314 25.6712 25.1441 24.8411 26.1644 24.8411C27.1847 24.8411 28.0149 25.6712 28.0149 26.6915C28.0149 27.7118 27.1847 28.5419 26.1644 28.5419Z" fill="#999999"/>
<mask id="mask0_23_10585" style="mask-type:luminance" maskUnits="userSpaceOnUse" x="15" y="15" width="18" height="18">
<path fill-rule="evenodd" clip-rule="evenodd" d="M26.1646 25.8504C25.7008 25.8504 25.3235 26.2277 25.3235 26.6915C25.3235 27.1552 25.7008 27.5325 26.1646 27.5325C26.6284 27.5325 27.0057 27.1552 27.0057 26.6915C27.0057 26.2277 26.6284 25.8504 26.1646 25.8504ZM31.7323 24.2266C31.6619 24.0826 31.6619 23.9174 31.7323 23.7733L32.385 22.4381C32.7483 21.6947 32.4604 20.8086 31.7295 20.4208L30.4166 19.7242C30.275 19.6491 30.1779 19.5154 30.1502 19.3575L29.8934 17.8936C29.7505 17.0786 28.9965 16.5309 28.1774 16.6468L26.7058 16.8549C26.547 16.8774 26.39 16.8263 26.2747 16.7148L25.2066 15.6815C24.6119 15.1062 23.6801 15.1061 23.0854 15.6815L22.0172 16.7149C21.902 16.8264 21.7449 16.8774 21.5861 16.855L20.1146 16.6469C19.2952 16.5309 18.5415 17.0787 18.3986 17.8937L18.1418 19.3575C18.1141 19.5154 18.017 19.6491 17.8754 19.7243L16.5626 20.4208C15.8316 20.8086 15.5437 21.6948 15.9071 22.4382L16.5597 23.7734C16.6301 23.9175 16.6301 24.0827 16.5597 24.2267L15.907 25.5619C15.5436 26.3053 15.8316 27.1914 16.5625 27.5792L17.8753 28.2758C18.017 28.3509 18.1141 28.4846 18.1418 28.6425L18.3986 30.1064C18.5287 30.8483 19.1649 31.3687 19.8961 31.3686C19.9681 31.3686 20.0412 31.3636 20.1147 31.3532L21.5862 31.145C21.7449 31.1225 21.902 31.1737 22.0173 31.2851L23.0854 32.3184C23.3828 32.6061 23.7644 32.75 24.146 32.7499C24.5275 32.7499 24.9093 32.6061 25.2066 32.3184L26.2747 31.2851C26.39 31.1737 26.5471 31.1227 26.7058 31.145L28.1774 31.3532C28.9969 31.4691 29.7505 30.9214 29.8934 30.1063L30.1502 28.6426C30.1779 28.4846 30.275 28.351 30.4166 28.2758L31.7295 27.5792C32.4604 27.1914 32.7483 26.3053 32.385 25.5619L31.7323 24.2266ZM22.1273 20.4673C21.6635 20.4673 21.2862 20.8446 21.2862 21.3084C21.2862 21.7722 21.6635 22.1495 22.1273 22.1495C22.5911 22.1495 22.9684 21.7722 22.9684 21.3084C22.9684 20.8446 22.5911 20.4673 22.1273 20.4673ZM22.1274 19.458C23.1477 19.458 23.9778 20.2881 23.9778 21.3085C23.9778 22.3288 23.1477 23.1589 22.1274 23.1589C21.1071 23.1589 20.277 22.3288 20.277 21.3085C20.277 20.2881 21.1071 19.458 22.1274 19.458ZM21.1722 27.6875C21.0737 27.786 20.9445 27.8353 20.8154 27.8353C20.6863 27.8353 20.5571 27.786 20.4586 27.6875C20.2615 27.4904 20.2615 27.1708 20.4586 26.9738L27.1197 20.3126C27.3168 20.1156 27.6363 20.1156 27.8334 20.3126C28.0305 20.5097 28.0305 20.8292 27.8334 21.0263L21.1722 27.6875ZM26.1645 28.542C25.1442 28.542 24.3141 27.7119 24.3141 26.6915C24.3141 25.6712 25.1442 24.8411 26.1645 24.8411C27.1848 24.8411 28.0149 25.6712 28.0149 26.6915C28.0149 27.7119 27.1848 28.542 26.1645 28.542Z" fill="white"/>
</mask>
<g mask="url(#mask0_23_10585)">
<path fill-rule="evenodd" clip-rule="evenodd" d="M36.2956 31.5104C36.2956 31.5104 37.9842 35.3029 31.8301 34.1873C25.676 33.0717 24.3233 38.2339 21.2916 37.8267C18.2599 37.4194 13.7211 33.8217 14.6676 29.7242C15.6141 25.6267 15.4759 22.7556 20.622 22.3366C25.7681 21.9176 27.6395 14.8572 30.7424 19.1195C33.8453 23.3819 36.2956 31.5104 36.2956 31.5104Z" fill="#999999"/>
</g>
</svg>
