<svg width="49" height="48" viewBox="0 0 49 48" fill="none" xmlns="http://www.w3.org/2000/svg">
<rect x="0.5" width="48" height="48" rx="24" fill="#CCCCCC"/>
<path fill-rule="evenodd" clip-rule="evenodd" d="M33.25 24C33.25 28.8325 29.3325 32.75 24.5 32.75C19.6675 32.75 15.75 28.8325 15.75 24C15.75 19.1675 19.6675 15.25 24.5 15.25C29.3325 15.25 33.25 19.1675 33.25 24ZM22.5248 25.975L24.2765 22.9439L25.1352 24.4294H24.1563C23.9846 24.4294 23.83 24.5153 23.7355 24.6526L23.3577 25.2623H25.6075L26.0196 25.975H27.5395L25.1008 21.9821H23.435L20.9963 25.975H22.5248ZM17.2353 22.025H19.4679C20.7903 22.025 21.6318 22.5488 21.6318 23.4333V23.4418C21.6318 24.3864 20.6872 24.8844 19.3906 24.8844H18.6779V26.0265H17.2353V22.025ZM19.3649 24.0172C19.8801 24.0172 20.1892 23.8111 20.1892 23.4934V23.4848C20.1892 23.1413 19.8801 22.961 19.3563 22.961H18.6779V24.0172H19.3649ZM26.3461 22.0164L28.3296 24.5238V26.0179H29.7808V24.5066L31.7644 22.0164H30.1501L29.0681 23.4762L27.9948 22.0164H26.3461Z" fill="#999999"/>
</svg>
