<svg width="49" height="48" viewBox="0 0 49 48" fill="none" xmlns="http://www.w3.org/2000/svg">
<rect x="1" y="0.5" width="47" height="47" rx="23.5" fill="white"/>
<rect x="1" y="0.5" width="47" height="47" rx="23.5" stroke="url(#paint0_linear_23_10581)"/>
<path fill-rule="evenodd" clip-rule="evenodd" d="M33.0928 21.3985L34.4334 27.0955C34.7976 28.6435 33.6218 30.1256 32.0335 30.1256C31.3568 30.1256 30.721 29.7654 30.3734 29.1859L29.3408 27.4654C29.1643 27.1709 28.8412 26.9879 28.4979 26.9879H20.5019C20.1586 26.9879 19.8357 27.1707 19.6592 27.4652L18.6265 29.1861C18.279 29.7654 17.6432 30.1256 16.9672 30.1256C15.3765 30.1256 14.2027 28.6419 14.5666 27.0955L15.9072 21.3985C16.4005 19.3015 18.2606 18.2857 19.8372 18.2857H29.1629C31.3171 18.2857 32.7318 19.8638 33.0928 21.3985ZM21.3207 23.2227H21.9899C22.3134 23.2227 22.5757 22.9604 22.5757 22.6369C22.5757 22.3133 22.3134 22.051 21.9899 22.051H21.3207V21.3817C21.3207 21.0583 21.0584 20.796 20.7348 20.796C20.4113 20.796 20.149 21.0583 20.149 21.3817V22.051H19.4797C19.1562 22.051 18.8939 22.3133 18.8939 22.6369C18.8939 22.9604 19.1562 23.2227 19.4797 23.2227H20.149V23.892C20.149 24.2154 20.4113 24.4777 20.7348 24.4777C21.0584 24.4777 21.3207 24.2154 21.3207 23.892V23.2227ZM27.01 23.2227C26.6867 23.2227 26.4243 22.9603 26.4243 22.6369C26.4243 22.3134 26.6869 22.051 27.01 22.051C27.3335 22.051 27.596 22.3134 27.596 22.6369C27.596 22.9603 27.3335 23.2227 27.01 23.2227ZM27.6793 23.892C27.6793 24.2153 27.9419 24.4777 28.2652 24.4777C28.5886 24.4777 28.851 24.2153 28.851 23.892C28.851 23.5686 28.5886 23.306 28.2652 23.306C27.9419 23.306 27.6793 23.5686 27.6793 23.892ZM28.2652 21.9677C27.9419 21.9677 27.6793 21.7052 27.6793 21.3817C27.6793 21.0584 27.9419 20.796 28.2652 20.796C28.5886 20.796 28.851 21.0584 28.851 21.3817C28.851 21.7052 28.5886 21.9677 28.2652 21.9677ZM28.9343 22.6369C28.9343 22.9603 29.1969 23.2227 29.5203 23.2227C29.8436 23.2227 30.106 22.9603 30.106 22.6369C30.106 22.3134 29.8436 22.051 29.5203 22.051C29.1969 22.051 28.9343 22.3134 28.9343 22.6369Z" fill="#FF6700"/>
<defs>
<linearGradient id="paint0_linear_23_10581" x1="8.5" y1="-3.60111e-07" x2="38.5" y2="38.5" gradientUnits="userSpaceOnUse">
<stop stop-color="#FF6700"/>
<stop offset="1" stop-color="#FF8900"/>
</linearGradient>
</defs>
</svg>
